<?xml version="1.0" encoding="utf-8"?>
<!-- Generator: Adobe Illustrator 22.1.0, SVG Export Plug-In . SVG Version: 6.00 Build 0)  -->
<svg version="1.1" xmlns="http://www.w3.org/2000/svg" xmlns:xlink="http://www.w3.org/1999/xlink" x="0px" y="0px"
	 viewBox="0 0 500 500" style="enable-background:new 0 0 500 500;" xml:space="preserve">
<style type="text/css">
	.st0{display:none;}
	.st1{display:inline;fill:none;stroke:#313131;stroke-width:3;stroke-miterlimit:10;}
	.st2{display:inline;fill:url(#SVGID_1_);}
	.st3{display:inline;fill:url(#SVGID_2_);stroke:url(#SVGID_3_);stroke-miterlimit:10;}
	.st4{fill:none;stroke:#84CEEB;stroke-width:3;stroke-miterlimit:10;}
	.st5{fill:url(#SVGID_4_);}
	.st6{fill:url(#SVGID_5_);}
</style>
<g id="Layer_1" class="st0">
	<path class="st1" d="M26.5,41.9v418.1c0,9.1,7.4,16.4,16.4,16.4h415.1c9.1,0,16.4-7.4,16.4-16.4V41.9c0-9.1-7.4-16.4-16.4-16.4
		H42.9C33.9,25.5,26.5,32.9,26.5,41.9z"/>
</g>
<g id="Layer_3" class="st0">
	
		<linearGradient id="SVGID_1_" gradientUnits="userSpaceOnUse" x1="380.6241" y1="95.3246" x2="199.7388" y2="199.2658" gradientTransform="matrix(1 0 0 -1 0 502)">
		<stop  offset="0.18" style="stop-color:#313131"/>
		<stop  offset="1" style="stop-color:#808080"/>
	</linearGradient>
	<path class="st2" d="M116.4,323.3c-3,4.9-6.3,10.5-9.2,15c-2.6,4.3-1.2,9.9,3.1,12.5l59.8,36.8c4.3,2.7,10,1.3,12.7-3
		c0,0,0.1-0.1,0.1-0.1c2.4-4,5.5-9.2,8.8-14.8c23.7-39.1,47.5-34.3,90.5-13.8l59.3,28.2c4.6,2.2,10.1,0.2,12.3-4.4
		c0-0.1,0.1-0.2,0.1-0.2l28.5-64.4c2-4.6,0-10-4.6-12c-12.5-5.9-37.4-17.6-59.8-28.4C237.3,235.5,168.8,238.1,116.4,323.3z"/>
	
		<linearGradient id="SVGID_2_" gradientUnits="userSpaceOnUse" x1="164.5461" y1="2210.5173" x2="-16.3851" y2="2314.5044" gradientTransform="matrix(-1 0 0 1 284.83 -2116.71)">
		<stop  offset="0.18" style="stop-color:#313131"/>
		<stop  offset="1" style="stop-color:#808080"/>
	</linearGradient>
	<linearGradient id="SVGID_3_" gradientUnits="userSpaceOnUse" x1="117.2294" y1="180.6857" x2="395.5" y2="180.6857">
		<stop  offset="0" style="stop-color:#FFFFFF"/>
		<stop  offset="1" style="stop-color:#000000"/>
	</linearGradient>
	<path class="st3" d="M384.5,177.2c3-4.9,6.3-10.5,9.2-15c2.6-4.3,1.2-9.9-3.1-12.5l-59.8-36.8c-4.2-2.8-9.9-1.7-12.8,2.5
		c-0.1,0.2-0.2,0.4-0.3,0.5c-2.4,4-5.5,9.2-8.8,14.8c-23.7,39.1-47.5,34.3-90.5,13.8l-59.1-28.1c-4.6-2.2-10.1-0.2-12.3,4.4
		c0,0.1-0.1,0.2-0.1,0.2l-28.5,64.4c-2,4.6,0,10,4.6,12c12.5,5.9,37.4,17.6,59.8,28.4C263.7,264.9,332.1,262.3,384.5,177.2z"/>
</g>
<g id="Layer_4">
	<path class="st4" d="M25.5,41.9v418.1c0,9.1,7.4,16.4,16.4,16.4h415.1c9.1,0,16.4-7.4,16.4-16.4V41.9c0-9.1-7.4-16.4-16.4-16.4
		H41.9C32.9,25.5,25.5,32.9,25.5,41.9z"/>
</g>
<g id="Layer_5">
	
		<linearGradient id="SVGID_4_" gradientUnits="userSpaceOnUse" x1="380.6241" y1="94.3246" x2="199.7388" y2="198.2658" gradientTransform="matrix(1 0 0 -1 0 502)">
		<stop  offset="0.18" style="stop-color:#0052CC"/>
		<stop  offset="1" style="stop-color:#2684FF"/>
	</linearGradient>
	<path class="st5" d="M116.4,324.3c-3,4.9-6.3,10.5-9.2,15c-2.6,4.3-1.2,9.9,3.1,12.5l59.8,36.8c4.3,2.7,10,1.3,12.7-3
		c0,0,0.1-0.1,0.1-0.1c2.4-4,5.5-9.2,8.8-14.8c23.7-39.1,47.5-34.3,90.5-13.8l59.3,28.2c4.6,2.2,10.1,0.2,12.3-4.4
		c0-0.1,0.1-0.2,0.1-0.2l28.5-64.4c2-4.6,0-10-4.6-12c-12.5-5.9-37.4-17.6-59.8-28.4C237.3,236.5,168.8,239.1,116.4,324.3z"/>
	
		<linearGradient id="SVGID_5_" gradientUnits="userSpaceOnUse" x1="164.5461" y1="2211.5173" x2="-16.3851" y2="2315.5044" gradientTransform="matrix(-1 0 0 1 284.83 -2116.71)">
		<stop  offset="0.1819" style="stop-color:#0052CC"/>
		<stop  offset="1" style="stop-color:#2684FF"/>
	</linearGradient>
	<path class="st6" d="M384.5,178.2c3-4.9,6.3-10.5,9.2-15c2.6-4.3,1.2-9.9-3.1-12.5l-59.8-36.8c-4.2-2.8-9.9-1.7-12.8,2.5
		c-0.1,0.2-0.2,0.4-0.3,0.5c-2.4,4-5.5,9.2-8.8,14.8c-23.7,39.1-47.5,34.3-90.5,13.8l-59.1-28.1c-4.6-2.2-10.1-0.2-12.3,4.4
		c0,0.1-0.1,0.2-0.1,0.2l-28.5,64.4c-2,4.6,0,10,4.6,12c12.5,5.9,37.4,17.6,59.8,28.4C263.7,265.9,332.1,263.3,384.5,178.2z"/>
</g>
</svg>
