<?xml version="1.0" encoding="utf-8"?>
<!-- Generator: Adobe Illustrator 22.1.0, SVG Export Plug-In . SVG Version: 6.00 Build 0)  -->
<svg version="1.1" xmlns="http://www.w3.org/2000/svg" xmlns:xlink="http://www.w3.org/1999/xlink" x="0px" y="0px"
	 viewBox="0 0 500 500" style="enable-background:new 0 0 500 500;" xml:space="preserve">
<style type="text/css">
	.st0{fill:none;stroke:#313131;stroke-width:3;stroke-miterlimit:10;}
	.st1{fill:#313131;}
	.st2{fill:#808080;}
	.st3{fill:url(#SVGID_1_);}
	.st4{fill:#FFFFFF;}
	.st5{display:none;}
	.st6{display:inline;fill:none;stroke:#8BD1B5;stroke-width:3;stroke-miterlimit:10;}
	.st7{display:inline;}
	.st8{fill:#23A565;}
	.st9{display:inline;fill:#8BD1B5;}
	.st10{display:inline;fill:url(#SVGID_2_);}
	.st11{display:inline;fill:#FFFFFF;}
</style>
<g id="Layer_4">
	<path class="st0" d="M26.5,41.9v418.1c0,9.1,7.4,16.4,16.4,16.4h415.1c9.1,0,16.4-7.4,16.4-16.4V41.9c0-9.1-7.4-16.4-16.4-16.4
		H42.9C33.9,25.5,26.5,32.9,26.5,41.9z"/>
</g>
<g id="Layer_5">
	<g>
		<path class="st1" d="M300.6,72H139.4c-11.8,0-21.4,9.6-21.4,21.4v314.2c0,11.8,9.6,21.4,21.4,21.4h221.4
			c11.8,0,21.4-9.6,21.4-21.4V160.8L300.6,72z"/>
	</g>
	<path class="st2" d="M382.1,160.9l-64.9-0.1c-9,0-16.2-7.6-16.2-17l0.1-71.9"/>
	<linearGradient id="SVGID_1_" gradientUnits="userSpaceOnUse" x1="347.7307" y1="169.556" x2="356.945" y2="220.7468">
		<stop  offset="0" style="stop-color:#141414"/>
		<stop  offset="1" style="stop-color:#313131"/>
	</linearGradient>
	<polyline class="st3" points="382.1,232.9 382.1,160.9 310.2,160.9 	"/>
	<rect x="183.2" y="239" class="st4" width="132.1" height="11.7"/>
	<rect x="183.4" y="336.2" class="st4" width="131.6" height="11.7"/>
	<rect x="183.2" y="271.4" class="st4" width="132.1" height="11.7"/>
	<rect x="183.2" y="303.8" class="st4" width="132.1" height="11.7"/>
	
		<rect x="255.9" y="287.8" transform="matrix(6.123234e-17 -1 1 6.123234e-17 16.6445 603.8724)" class="st4" width="108.8" height="11.7"/>
	
		<rect x="134.9" y="287.8" transform="matrix(6.123234e-17 -1 1 6.123234e-17 -104.3555 482.8724)" class="st4" width="108.8" height="11.7"/>
	
		<rect x="195.9" y="287.8" transform="matrix(6.123234e-17 -1 1 6.123234e-17 -43.3555 543.8724)" class="st4" width="108.8" height="11.7"/>
</g>
<g id="Layer_1" class="st5">
	<path class="st6" d="M26.5,41.9v418.1c0,9.1,7.4,16.4,16.4,16.4h415.1c9.1,0,16.4-7.4,16.4-16.4V41.9c0-9.1-7.4-16.4-16.4-16.4
		H42.9C33.9,25.5,26.5,32.9,26.5,41.9z"/>
</g>
<g id="Layer_3" class="st5">
	<g class="st7">
		<path class="st8" d="M300.6,72H139.4c-11.8,0-21.4,9.6-21.4,21.4v314.2c0,11.8,9.6,21.4,21.4,21.4h221.4
			c11.8,0,21.4-9.6,21.4-21.4V160.8L300.6,72z"/>
	</g>
	<path class="st9" d="M382.1,160.9l-64.9-0.1c-9,0-16.2-7.6-16.2-17l0.1-71.9"/>
	<linearGradient id="SVGID_2_" gradientUnits="userSpaceOnUse" x1="347.7307" y1="169.556" x2="356.945" y2="220.7468">
		<stop  offset="0" style="stop-color:#007F49"/>
		<stop  offset="1" style="stop-color:#17995C"/>
	</linearGradient>
	<polyline class="st10" points="382.1,232.9 382.1,160.9 310.2,160.9 	"/>
	<rect x="183.2" y="239" class="st11" width="132.1" height="11.7"/>
	<rect x="183.4" y="336.2" class="st11" width="131.6" height="11.7"/>
	<rect x="183.2" y="271.4" class="st11" width="132.1" height="11.7"/>
	<rect x="183.2" y="303.8" class="st11" width="132.1" height="11.7"/>
	
		<rect x="255.9" y="287.8" transform="matrix(6.123234e-17 -1 1 6.123234e-17 16.6445 603.8724)" class="st11" width="108.8" height="11.7"/>
	
		<rect x="134.9" y="287.8" transform="matrix(6.123234e-17 -1 1 6.123234e-17 -104.3555 482.8724)" class="st11" width="108.8" height="11.7"/>
	
		<rect x="195.9" y="287.8" transform="matrix(6.123234e-17 -1 1 6.123234e-17 -43.3555 543.8724)" class="st11" width="108.8" height="11.7"/>
</g>
</svg>
