<?xml version="1.0" encoding="utf-8"?>
<!-- Generator: Adobe Illustrator 22.1.0, SVG Export Plug-In . SVG Version: 6.00 Build 0)  -->
<svg version="1.1" xmlns="http://www.w3.org/2000/svg" xmlns:xlink="http://www.w3.org/1999/xlink" x="0px" y="0px"
	 viewBox="0 0 500 500" style="enable-background:new 0 0 500 500;" xml:space="preserve">
<style type="text/css">
	.st0{display:none;}
	.st1{display:inline;fill:#313131;}
	.st2{display:inline;fill:#FFFFFF;}
	.st3{fill:none;stroke:#FF3366;stroke-width:3;stroke-miterlimit:10;}
	.st4{fill:#FF3366;}
	.st5{fill:#FFFFFF;}
	.st6{display:inline;}
	.st7{fill:#313131;}
</style>
<g id="Layer_4" class="st0">
	<path class="st1" d="M26,40.4v418.1c0,9.1,7.4,16.4,16.4,16.4h415.1c9.1,0,16.4-7.4,16.4-16.4V40.4c0-9.1-7.4-16.4-16.4-16.4H42.4
		C33.4,24,26,31.4,26,40.4z"/>
</g>
<g id="Layer_5" class="st0">
	<path class="st1" d="M26,41.4v418.1c0,9.1,7.4,16.4,16.4,16.4h415.1c9.1,0,16.4-7.4,16.4-16.4V41.4c0-9.1-7.4-16.4-16.4-16.4H42.4
		C33.4,25,26,32.4,26,41.4z"/>
	<path class="st2" d="M114.4,249.3v23.5c-13.2,0-23.7-10.3-24.2-23.5H114.4z M114.4,319.3v-23.5c-13.2,0-23.7,10.3-24.2,23.5H114.4z
		 M174.3,288.3c10.8,0,19.5-8.7,19.5-19.5s-8.7-19.5-19.5-19.5 M197.5,295.6H174c0,13.2,10.3,23.7,23.5,24.2V295.6z M163.2,249.3
		h-26.1v70h26.1V249.3L163.2,249.3z M222.2,295.6c-6.6,0-12,5.4-12,12s5.4,12,12,12s12-5.4,12-12S228.8,295.6,222.2,295.6z
		 M327.2,249.3c0.5,12.9,11,23.5,24.2,23.5v-23.5H327.2z M317.5,249.3h-26.1v70h26.1V249.3z M338.2,278.2c-6.6,0-12,5.4-12,12
		s5.4,12,12,12s12-5.4,12-12S345,278.2,338.2,278.2z M423.2,249.3h-26.1v70h26.1V249.3z M429.8,249.3c0.5,12.9,11,23.5,24.2,23.5
		v-23.5H429.8z M366.4,249.3v23.5c13.2,0,23.7-10.3,24.2-23.5H366.4z M242.8,249.3l-15,26.1l25.4,43.9h30.1L242.8,249.3z
		 M46.3,284.3c0,19,15.3,34.5,34.3,35v-70C61.5,249.8,46.3,265.3,46.3,284.3z"/>
</g>
<g id="Layer_3">
	<path d="M114.3,249.5l0,23.5c-13.2,0-23.7-10.3-24.2-23.5L114.3,249.5z M114.4,319.5l0-23.5c-13.2,0-23.7,10.4-24.2,23.5
		L114.4,319.5z M174.3,288.4c10.8,0,19.5-8.7,19.5-19.5c0-10.8-8.7-19.5-19.5-19.5 M197.5,295.7l-23.5,0c0,13.2,10.4,23.7,23.5,24.2
		L197.5,295.7z M163.2,249.5l-26.1,0l0.1,70l26.1,0L163.2,249.5L163.2,249.5z M222.2,295.6c-6.6,0-12,5.4-12,12s5.4,12,12,12
		c6.6,0,12-5.4,12-12C234.2,301,228.8,295.6,222.2,295.6z M327.1,249.2c0.5,12.9,11.1,23.5,24.2,23.5l0-23.5L327.1,249.2z
		 M317.5,249.2l-26.1,0l0.1,70l26.1,0L317.5,249.2z M338.2,278.1c-6.6,0-12,5.4-12,12c0,6.6,5.4,12,12,12c6.6,0,12-5.4,12-12
		C350.2,283.5,345,278.1,338.2,278.1z M423.2,249.1l-26.1,0l0.1,70l26.1,0L423.2,249.1z M429.8,249.1c0.5,12.9,11.1,23.5,24.2,23.5
		l0-23.5L429.8,249.1z M366.3,249.2l0,23.5c13.2,0,23.7-10.4,24.2-23.5L366.3,249.2z M242.8,249.3l-15,26.1l25.4,43.9l30.1,0
		L242.8,249.3z M46.3,284.6c0,19,15.3,34.5,34.3,34.9l-0.1-70C61.5,250.1,46.2,265.6,46.3,284.6z"/>
</g>
<g id="Layer_6">
	<path class="st3" d="M26,42.4v418.1c0,9.1,7.4,16.4,16.4,16.4h415.1c9.1,0,16.4-7.4,16.4-16.4V42.4c0-9.1-7.4-16.4-16.4-16.4H42.4
		C33.4,26,26,33.4,26,42.4z"/>
</g>
<g id="Layer_7">
	<g>
		<path class="st4" d="M162,142.5V199c0,2.2,1.8,4,4,4h56.4c2.2,0,4-1.8,4-4v-56.4c0-2.2-1.8-4-4-4H166
			C163.8,138.5,162,140.3,162,142.5z"/>
		<path id="vision" class="st4" d="M286.3,185.9h5.8v-24.5h-5.8C286.3,161.5,286.3,185.9,286.3,185.9z M340.4,161c-4,0-6.3,2-8,4.3
			v-3.8h-5.8v24.5h5.8v-13.8c0-3.8,2.4-6.1,5.7-6.1c3.5,0,5.4,2.2,5.4,6v13.9h5.8v-15.6C349.5,164.7,346.1,161,340.4,161z
			 M309.6,181.6c-4.5,0-7.8-3.6-7.8-7.9c0-4.3,3-7.8,7.7-7.8c4.6,0,7.8,3.6,7.8,7.9C317.3,178.1,314.3,181.6,309.6,181.6z
			 M309.6,161c-7.8,0-13.6,5.8-13.6,12.8c0,7,5.7,12.7,13.5,12.7c7.9,0,13.6-5.8,13.6-12.8C323.1,166.7,317.4,161,309.6,161z
			 M237.4,179.5l-6.8-18h-6.3l10.5,24.7h5.3l10.4-24.7h-6.1L237.4,179.5z M274.6,171.5c-3-0.9-5.7-1.7-5.7-3.4V168
			c0-1.4,1.3-2.5,3.6-2.5c1.1,0,2.3,0.2,3.6,0.7l0,0c0,0,0,0,0,0c0.1,0,0.2,0.1,0.3,0.1c0.9,0.3,3.4,0.7,5.5-2.5
			c-2.7-1.7-6.2-2.8-9.4-2.8c-5.1,0-9.1,2.8-9.1,7.5v0.1c0,4.7,4.2,6.2,8,7.2c3,0.9,5.7,1.5,5.7,3.4v0.1c0,1.6-1.4,2.6-4,2.6
			c-1.7,0-3.5-0.4-5.3-1.2c-0.5-0.2-3.2-1.1-5.6,2.1c3.2,2.4,7.1,3.6,10.7,3.6c5.3,0,9.4-2.5,9.4-7.7v-0.1
			C282.5,174.2,278.3,172.6,274.6,171.5z M253.3,185.9h5.8v-24.5h-5.8C253.3,161.5,253.3,185.9,253.3,185.9z"/>
		<path class="st5" d="M176.3,178.1c-0.2,1-0.3,2-0.3,2.8c0,3.3,1.7,5.5,5.4,5.5c3.1,0,5.5-1.9,7.3-4.9l-1.1,4.5h6.1l3.5-14.4
			c0.9-3.7,2.5-5.6,5.1-5.6c2,0,3.2,1.3,3.2,3.4c0,0.6-0.1,1.3-0.3,2l-1.8,6.6c-0.3,1-0.4,1.9-0.4,2.8c0,3.2,1.8,5.5,5.5,5.5
			c3.2,0,5.7-2.1,7.1-7.3l-2.4-1c-1.2,3.4-2.2,4.1-3,4.1c-0.8,0-1.2-0.6-1.2-1.7c0-0.5,0.1-1.1,0.3-1.7l1.7-6.5
			c0.4-1.5,0.6-2.9,0.6-4.1c0-4.8-2.8-7.4-6.2-7.4c-3.2,0-6.4,3-8.1,6.1l1.2-5.7h-9.2l-1.3,5h4.3l-2.7,11.1
			c-2.1,4.8-5.9,4.9-6.4,4.8c-0.8-0.2-1.3-0.5-1.3-1.6c0-0.6,0.1-1.5,0.4-2.6l4.1-16.7h-10.3l-1.3,5h4.3L176.3,178.1"/>
		<circle class="st5" cx="182.2" cy="154.6" r="4"/>
	</g>
</g>
<g id="Layer_8" class="st0">
	<g class="st6">
		<path class="st5" d="M162,142.5V199c0,2.2,1.8,4,4,4h56.4c2.2,0,4-1.8,4-4v-56.4c0-2.2-1.8-4-4-4H166
			C163.8,138.5,162,140.3,162,142.5z"/>
		<path id="vision_1_" class="st5" d="M286.3,185.9h5.8v-24.5h-5.8C286.3,161.5,286.3,185.9,286.3,185.9z M340.4,161
			c-4,0-6.3,2-8,4.3v-3.8h-5.8v24.5h5.8v-13.8c0-3.8,2.4-6.1,5.7-6.1c3.5,0,5.4,2.2,5.4,6v13.9h5.8v-15.6
			C349.5,164.7,346.1,161,340.4,161z M309.6,181.6c-4.5,0-7.8-3.6-7.8-7.9c0-4.3,3-7.8,7.7-7.8c4.6,0,7.8,3.6,7.8,7.9
			C317.3,178.1,314.3,181.6,309.6,181.6z M309.6,161c-7.8,0-13.6,5.8-13.6,12.8c0,7,5.7,12.7,13.5,12.7c7.9,0,13.6-5.8,13.6-12.8
			C323.1,166.7,317.4,161,309.6,161z M237.4,179.5l-6.8-18h-6.3l10.5,24.7h5.3l10.4-24.7h-6.1L237.4,179.5z M274.6,171.5
			c-3-0.9-5.7-1.7-5.7-3.4V168c0-1.4,1.3-2.5,3.6-2.5c1.1,0,2.3,0.2,3.6,0.7l0,0c0,0,0,0,0,0c0.1,0,0.2,0.1,0.3,0.1
			c0.9,0.3,3.4,0.7,5.5-2.5c-2.7-1.7-6.2-2.8-9.4-2.8c-5.1,0-9.1,2.8-9.1,7.5v0.1c0,4.7,4.2,6.2,8,7.2c3,0.9,5.7,1.5,5.7,3.4v0.1
			c0,1.6-1.4,2.6-4,2.6c-1.7,0-3.5-0.4-5.3-1.2c-0.5-0.2-3.2-1.1-5.6,2.1c3.2,2.4,7.1,3.6,10.7,3.6c5.3,0,9.4-2.5,9.4-7.7v-0.1
			C282.5,174.2,278.3,172.6,274.6,171.5z M253.3,185.9h5.8v-24.5h-5.8C253.3,161.5,253.3,185.9,253.3,185.9z"/>
		<path class="st7" d="M176.3,178.1c-0.2,1-0.3,2-0.3,2.8c0,3.3,1.7,5.5,5.4,5.5c3.1,0,5.5-1.9,7.3-4.9l-1.1,4.5h6.1l3.5-14.4
			c0.9-3.7,2.5-5.6,5.1-5.6c2,0,3.2,1.3,3.2,3.4c0,0.6-0.1,1.3-0.3,2l-1.8,6.6c-0.3,1-0.4,1.9-0.4,2.8c0,3.2,1.8,5.5,5.5,5.5
			c3.2,0,5.7-2.1,7.1-7.3l-2.4-1c-1.2,3.4-2.2,4.1-3,4.1c-0.8,0-1.2-0.6-1.2-1.7c0-0.5,0.1-1.1,0.3-1.7l1.7-6.5
			c0.4-1.5,0.6-2.9,0.6-4.1c0-4.8-2.8-7.4-6.2-7.4c-3.2,0-6.4,3-8.1,6.1l1.2-5.7h-9.2l-1.3,5h4.3l-2.7,11.1
			c-2.1,4.8-5.9,4.9-6.4,4.8c-0.8-0.2-1.3-0.5-1.3-1.6c0-0.6,0.1-1.5,0.4-2.6l4.1-16.7h-10.3l-1.3,5h4.3L176.3,178.1"/>
		<circle class="st7" cx="182.2" cy="154.6" r="4"/>
	</g>
</g>
</svg>
