<?xml version="1.0" encoding="utf-8"?>
<!-- Generator: Adobe Illustrator 22.1.0, SVG Export Plug-In . SVG Version: 6.00 Build 0)  -->
<svg version="1.1" xmlns="http://www.w3.org/2000/svg" xmlns:xlink="http://www.w3.org/1999/xlink" x="0px" y="0px"
	 viewBox="0 0 500 500" style="enable-background:new 0 0 500 500;" xml:space="preserve">
<style type="text/css">
	.st0{fill:none;stroke:#313131;stroke-width:3;stroke-miterlimit:10;}
	.st1{fill:#313131;}
</style>
<g id="Layer_1">
	<path class="st0" d="M26.5,41.9v418.1c0,9.1,7.4,16.4,16.4,16.4h415.1c9.1,0,16.4-7.4,16.4-16.4V41.9c0-9.1-7.4-16.4-16.4-16.4
		H42.9C33.9,25.5,26.5,32.9,26.5,41.9z"/>
</g>
<g id="Layer_2">
	<g>
		<path id="LinkedIn" class="st1" d="M448,292.5v146h-84.7V302.3c0-34.2-12.2-57.6-42.9-57.6c-23.4,0-37.3,15.7-43.4,31
			c-2.2,5.4-2.8,13-2.8,20.6v142.2h-84.7c0,0,1.1-230.8,0-254.7h84.7V220c-0.2,0.3-0.4,0.6-0.6,0.8h0.6V220
			c11.3-17.3,31.3-42.1,76.3-42.1C406.2,177.9,448,214.3,448,292.5z M100.9,61.1c-29,0-47.9,19-47.9,44c0,24.4,18.4,44,46.8,44h0.6
			c29.5,0,47.9-19.6,47.9-44C147.7,80.1,129.9,61.1,100.9,61.1z M58,438.6h84.7V183.9H58V438.6z"/>
	</g>
</g>
</svg>
