<?xml version="1.0" encoding="utf-8"?>
<!-- Generator: Adobe Illustrator 22.1.0, SVG Export Plug-In . SVG Version: 6.00 Build 0)  -->
<svg version="1.1" xmlns="http://www.w3.org/2000/svg" xmlns:xlink="http://www.w3.org/1999/xlink" x="0px" y="0px"
	 viewBox="0 0 500 500" style="enable-background:new 0 0 500 500;" xml:space="preserve">
<style type="text/css">
	.st0{display:none;}
	.st1{display:inline;fill:none;stroke:#313131;stroke-width:3;stroke-miterlimit:10;}
	.st2{display:inline;fill:#313131;}
	.st3{display:inline;fill:#FFFFFF;}
	.st4{fill:#FF2BC2;}
	.st5{fill:#2E001E;}
</style>
<g id="Layer_1" class="st0">
	<path class="st1" d="M26.5,41.9v418.1c0,9.1,7.4,16.4,16.4,16.4h415.1c9.1,0,16.4-7.4,16.4-16.4V41.9c0-9.1-7.4-16.4-16.4-16.4
		H42.9C33.9,25.5,26.5,32.9,26.5,41.9z"/>
</g>
<g id="Layer_2" class="st0">
	<path class="st2" d="M57.6,57.9h386.9v386H57.6V57.9z"/>
	<path class="st3" d="M267.3,273.2c0-39.3,25.3-70.1,66.9-70.1c3.5,0,5.4,0,8.8,0.3v-43.9c0-1,0.8-1.7,1.7-1.7h27.2
		c1.4,0,1.7,0.5,1.7,1.4v154.3c0,4.6,0,10.3,0.8,16.5c0,1.2,0,1.4-1,1.9c-14.2,6.8-29,9.8-43.2,9.8
		C293.5,341.8,267.3,319.2,267.3,273.2L267.3,273.2z"/>
	<path class="st3" d="M209.8,245.9l47.3,91.7c0.8,1.4,0.3,2.7-1,2.7h-29.4c-1.9,0-2.7-0.5-3.5-2.2c-10.8-22.3-21.8-45.4-33.1-69.4
		h-0.3c-10.1,22.6-21.3,47.3-32.1,69.6c-0.8,1.4-1.7,1.9-3,1.9h-28c-1.7,0-1.9-1.4-1-2.4l46.3-89L127,160.3c-1-1.4,0-2.5,1.2-2.5h29
		c1.7,0,2.5,0.3,3,1.9c10.6,22.5,21.4,44.6,31.6,67.2h0.3c9.8-22.3,20.6-44.7,30.9-66.9c0.8-1.4,1.4-2.2,3-2.2h27.2
		c1.4,0,1.9,1,1,2.5L209.8,245.9L209.8,245.9z"/>
	<path class="st2" d="M344.2,229c-3-1.2-6.9-1.8-11.7-1.8c-25.5,0-42.5,17.1-42.5,45.5c0,32.4,17.4,45.5,40,45.5
		c4.9,0,10.1-0.5,13.9-1.9V229H344.2z"/>
</g>
<g id="Layer_3">
	<path class="st4" d="M25.5,41.9v418.1c0,9.1,7.4,16.4,16.4,16.4h415.1c9.1,0,16.4-7.4,16.4-16.4V41.9c0-9.1-7.4-16.4-16.4-16.4
		H41.9C32.9,25.5,25.5,32.9,25.5,41.9z"/>
</g>
<g id="Layer_4">
	<path class="st5" d="M57.6,57.9h386.9v386H57.6V57.9z"/>
	<path class="st4" d="M209.8,245.9l47.3,91.7c0.8,1.4,0.3,2.7-1,2.7h-29.4c-1.9,0-2.7-0.5-3.5-2.2c-10.8-22.3-21.8-45.4-33.1-69.4
		h-0.3c-10.1,22.6-21.3,47.3-32.1,69.6c-0.8,1.4-1.7,1.9-3,1.9h-28c-1.7,0-1.9-1.4-1-2.4l46.3-89L127,160.3c-1-1.4,0-2.5,1.2-2.5h29
		c1.7,0,2.5,0.3,3,1.9c10.6,22.5,21.4,44.6,31.6,67.2h0.3c9.8-22.3,20.6-44.7,30.9-66.9c0.8-1.4,1.4-2.2,3-2.2h27.2
		c1.4,0,1.9,1,1,2.5L209.8,245.9L209.8,245.9z"/>
	<path class="st4" d="M373.5,313.6V159.3c0-0.8-0.3-1.4-1.7-1.4h-27.2c-0.8,0-1.7,0.7-1.7,1.7v43.9c-3.4-0.3-5.2-0.3-8.8-0.3
		c-41.5,0-66.9,30.7-66.9,70.1v0c0,45.9,26.2,68.6,62.8,68.6c14.2,0,29-3,43.2-9.8c1-0.5,1-0.7,1-1.9
		C373.5,323.9,373.5,318.2,373.5,313.6z M344,229v87.3c-3.8,1.4-9.1,1.9-13.9,1.9c-22.6,0-40-13-40-45.5c0-28.4,17-45.5,42.5-45.5
		c4.9,0,8.7,0.5,11.7,1.8H344z"/>
</g>
</svg>
