<?xml version="1.0" encoding="utf-8"?>
<!-- Generator: Adobe Illustrator 22.1.0, SVG Export Plug-In . SVG Version: 6.00 Build 0)  -->
<svg version="1.1" xmlns="http://www.w3.org/2000/svg" xmlns:xlink="http://www.w3.org/1999/xlink" x="0px" y="0px"
	 viewBox="0 0 500 500" style="enable-background:new 0 0 500 500;" xml:space="preserve">
<style type="text/css">
	.st0{display:none;}
	.st1{display:inline;fill:none;stroke:#313131;stroke-width:3;stroke-miterlimit:10;}
	.st2{display:inline;}
	.st3{fill:#373737;}
	.st4{fill:#84CEEB;stroke:#84CEEB;stroke-width:3;stroke-miterlimit:10;}
	.st5{fill:#FFFFFF;}
</style>
<g id="Layer_1" class="st0">
	<path class="st1" d="M26.5,41.9v418.1c0,9.1,7.4,16.4,16.4,16.4h415.1c9.1,0,16.4-7.4,16.4-16.4V41.9c0-9.1-7.4-16.4-16.4-16.4
		H42.9C33.9,25.5,26.5,32.9,26.5,41.9z"/>
</g>
<g id="Layer_3" class="st0">
	<g class="st2">
		<path class="st3" d="M444.2,269.9l0.1,0c8.5,0,14.5-5.9,14.5-14.3c0-4.2-1.2-8-3.4-10.7c-2.3-2.9-5.6-4.5-9.5-4.5l-0.1,0
			c-5.2,0-10.1,4-14.8,12.1l-0.4,0.6l-0.2-0.7c-1.2-3.5-2.3-6.4-2.9-8.1c-0.4-1.2-0.6-1.8-0.7-1.9c-0.2-0.9-1-1.4-2-1.4
			c-0.6,0-1.3,0.2-1.9,0.6c-0.6,0.4-0.9,0.9-1.1,1.5l0,0.1c-4.8,14.8-8.7,22-12,22c-0.5,0-0.9-0.2-1.1-0.5c-0.9-1-0.7-3.3-0.4-6.4
			c0.2-2.3,0.5-5,0.4-7.8c-0.2-5.4-3.1-8.6-7.9-8.6c-6,0-9.9,6.4-11.7,10.2l-0.5,1.1l-0.1-1.3c-0.4-4.7-2-10.4-7-10.4
			c-5.8,0-10.3,6.8-13,12.6l-0.7,1.5l0.1-1.7c0.3-7.7,0.6-12.2,0.8-13.4c0.2-1.3,0.1-2.1-0.3-2.6c-0.4-0.5-1.1-0.6-2.2-0.6
			c-1.9,0.1-2.8,1.3-4.3,5.1c-2.4,6.3-8.4,20.8-13.2,20.8c-1,0-1.7-0.3-2.3-1c-2-2.3-1.2-8.5-0.1-17.2l0.1-0.7
			c0.5-4.1-0.4-5-2.6-5.4c-0.2,0-0.5-0.1-0.7-0.1c-1.8,0-2.6,1.7-4.3,6.4c-2.9,8.4-6.7,17.2-11.2,17.2c-0.2,0-0.3,0-0.5,0
			c-2.3-0.4-2.3-3.9-2.2-8.3c0-2.4,0.1-5.1-0.3-7.5c-0.7-4.4-3.2-7.1-6.7-7.1c-7,0-11.7,8.9-13.9,14.3l-0.5,1.2l-0.2-1.3
			c-0.3-2.3-0.7-6-0.8-10.3l0-0.1l0.1-0.1c13.1-16.4,18.9-28.3,19-38.4c0-6.5-2.9-10.4-8-10.4c-3.7,0-12.5,3.1-15.6,31.7
			c-0.6,5.3-0.9,10.7-0.9,16.1l0,0.1l-0.1,0.1c-6,8.6-18.7,23.5-31.2,23.5c-11.3,0-20.3-9.1-20.3-25.2c0-21.6,15.3-34.8,26.8-34.8
			l0.1,0c2.5,0,4.6,0.7,6.2,2c1.6,1.4,2.5,3.2,2.4,5.5c0,3-1,4.5-1.9,6c-0.2,0.4-0.5,0.8-0.7,1.2c-0.2,0.4-0.4,1-0.1,1.5
			c0.3,0.5,1.1,0.8,2,0.8c2.7,0,6.9-4,6.9-9.9c0-6.2-5.2-12.7-14.6-12.7c-14.2,0-33.3,15.6-33.3,40.9c0,17.9,11.2,30.3,26.4,30.3
			c10.8,0,21.5-7.7,30.9-20.6l0.6-0.8l0,1c0.2,4.7,0.5,8.4,0.8,11.2c0.2,1.7,0.3,3,0.3,3.7c0,1.5,0.2,2.6,0.8,3.2
			c0.5,0.7,1.4,1,2.6,1c2.1,0,2.5-1.4,3.4-5l0.2-1c1-4.3,4.9-18.4,10.7-18.4c0.9,0,1.7,0.3,2.2,0.8c1.3,1.4,1.1,4.1,1,7.4
			c-0.1,2-0.2,4.1,0,6.1c0.5,5.5,2.9,8.2,7.2,8.2c4.4,0,9.1-4.8,11.5-9.2l0.5-0.8l0.2,0.9c0.5,2.4,2.5,10.2,8.8,10.2
			c5.7,0,10.6-6,16-18.4l0.7-1.6l0,1.8c-0.1,4.7-0.4,10.4-0.4,14.9c0,3.4,0.3,4.7,1.9,4.7l0.4,0c1.5,0,2.6-0.9,3.1-2.7
			c4-14.1,7.5-20.7,11-20.7c3.4,0,3.7,6.2,4,17.2l0,0.8c0.1,3.8,0.2,5.5,2.6,5.5c1.8,0,2.3-1.4,3.2-4.9c0.2-0.7,0.4-1.4,0.6-2.2
			c3.3-11.3,6-16,9.3-16c2.9,0,3,3,3.1,4c0.1,2.1-0.1,4.3-0.3,6.4c-0.2,2-0.4,4-0.3,5.9c0.2,4.4,2.6,6.9,6.8,6.9
			c5.5,0,10.4-6.4,14.8-19.1l0.3-0.9l0.3,0.9c0.8,2,1.8,4.7,2.8,7.9l0,0.1l-0.1,0.1c-4.2,9.3-7.2,19.7-7.2,25.3
			c-0.1,7.3,3.3,12.1,8.4,12.1l0.1,0c2.8,0,9.4-1.1,9.5-11.6c0.1-4.3-1-10.4-3-18l-0.2-0.9l0.8,0.5
			C438.3,268.9,441.2,269.8,444.2,269.9L444.2,269.9z M302.7,234.4c0.1-2.6,0.3-5.2,0.7-7.6c2-15.6,6.3-26.4,10.3-26.4h0
			c1.9,0,2.9,1.5,2.9,4.3c-0.1,7-4.5,17.1-13.2,29.9l-0.7,1L302.7,234.4z M431.6,290.3c-0.6,0.9-1.5,1.3-2.7,1.3
			c-1.3,0-2.3-0.5-2.9-1.3c-1.8-2.5-1.3-8.3,1.7-18.8c0.4-1.3,0.8-2.5,1.2-3.8l0.4-1.1l0.3,1.1C433.1,279.9,433.8,287.5,431.6,290.3
			L431.6,290.3z M432.7,259.2l-0.1-0.1l-0.1-0.4l0.1-0.1c4-8.2,8.6-13,12.6-13h0c4.5,0,7.6,4.1,7.6,9.9c0,3.8-1.7,6.1-3.1,7.2
			c-1.6,1.3-3.8,2.1-5.9,2.1C438.5,264.8,434.9,261.7,432.7,259.2z M236.4,260.8c-0.5-0.6-1.3-0.7-1.9-0.1l-0.3,0.3
			c-1.4,1.3-4,3.9-6.9,4c-3.5,0.2-6.1-1.9-7.7-6.2l-0.1-0.2l0.1-0.2c9.6-12.5,16.3-31.7,15.7-44.5c-0.3-5.9-2-13-8.5-13
			c-0.2,0-0.3,0-0.5,0c-2.5,0.1-4.7,1.3-6.7,3.5c-6,6.7-9.2,23.3-8,42.3c0.2,3.9,0.9,7.6,2,10.9l0.1,0.2l-0.1,0.1
			c-3.6,4.2-7.1,6.5-9.9,6.5c-6.8,0-6.6-11.4-6-20.8c0.1-2,0.3-3.3-0.3-4.1c-0.4-0.5-1.1-0.8-2.2-0.8l-0.1,0c-2.4,0-2.9,0.5-4.2,4.1
			c-2.6,7.4-7.6,19.9-12.7,19.9c-1.4,0-2.5-0.5-3.2-1.4c-2.5-3.2-0.6-11,0.9-17.4c0.3-1.1,0.5-2.2,0.8-3.2c0.3-1.5,0.2-2.6-0.3-3.3
			c-0.5-0.7-1.6-0.9-3-0.8c-2.2,0.2-3.6,1.1-4.3,5.2l-0.1,0.9l-0.5-0.6c-1-1.4-2.8-3.1-6.3-3.1c-0.3,0-0.6,0-0.9,0
			c-3.7,0.3-7.9,2.9-11,6.7c-3.6,4.5-5.3,10.1-4.8,15.9c0,0.3,0.1,0.6,0.1,0.9l0,0.2l-0.1,0.1c-2.1,2.3-4.3,3.5-6.5,3.5
			c-3.3,0-5.3-2.5-5.3-6.6c0-7,4.7-28,4.7-35.6c0-8.1-3.6-12.5-9.9-12.5l-0.1,0c-9.1,0-16.3,10.4-23.1,31.7c-0.6,2-1.3,4.2-1.9,6.2
			l-1,3.2l0.3-3.3c0.6-7.4,1.1-14.7,1.3-21.5c0.3-10.3-1.1-16.9-4.3-20.3c-1.7-1.8-4-2.7-7-2.7h-0.1c-11.2,0-16.5,18.9-20.4,32.2
			c-0.9,3.1-2.4,9-3.8,14.4c0.8-9.1,2.4-25.3,2.2-34.6c-0.1-11.4-3.9-16.5-12.3-16.5h-0.1c-4.5,0-7.6,2.2-9.4,4.1
			c-2.9,3-4.7,7.3-4.6,11.1c0.1,2.3,1.5,4.3,2.5,4.3c0.7,0,1.1-0.9,1.2-1.5c2.6-8.5,5.9-12.7,10.2-12.7c1.8,0,3.1,0.5,4.1,1.6
			c3.4,3.6,2.7,13.3,1.6,30.9c-0.4,5.7-0.8,12.1-1.1,19.4c-0.1,1.3-0.1,2.5-0.2,3.6c-0.3,5.1-0.6,9.1,1.3,9.4c2.5,0.4,4.1-0.6,5-3.1
			c1.2-3.7,4-13.8,9.4-32.2c5.2-17.7,9.1-24.1,14.1-24.1c5.8,0,6.2,9.9,5.1,30.8c-0.2,4.4-0.5,9.4-0.8,14.9c0,0.8-0.1,1.5-0.1,2.2
			c-0.2,4.5-0.4,8.1,0.9,9.5c0.4,0.4,1,0.6,1.7,0.6c2.5,0,3.3-2.2,4.5-5.8c0.2-0.6,0.5-1.3,0.7-2c8.6-23.6,14.9-44.1,23.4-44.1
			c2.5,0,4.5,2.1,4.5,6.1c0,9.3-4.6,27.3-4.6,36.5c0,3.3,0.9,6.2,2.7,8.3c1.8,2.1,4.4,3.2,7.4,3.3h0.1c2.8,0,5.8-1.4,8.8-4.1
			l0.3-0.3l0.2,0.3c2,2.7,5.2,4.1,8.6,3.8c5.3-0.4,9.7-5.1,11.4-9.5l0.3-0.9l0.3,0.9c1.2,3.3,3.9,7.3,9.5,6.8
			c6.2-0.5,11.1-8.9,12.9-12.5l0.5-0.9l0.2,1c0.9,5,3.6,13.5,12.2,13.6l0.1,0c3.7,0,7.9-2.3,12.2-6.6l0.3-0.3l0.2,0.4
			c2.9,4.8,6.7,7.3,10.8,7.1c6-0.3,9.7-4.6,10-7.6C237,262,236.8,261.3,236.4,260.8L236.4,260.8z M167.6,248.4
			c-1.8,7.4-5.4,16.4-11.8,16.9c-0.2,0-0.4,0-0.5,0c-2.7,0-4.1-1.7-4.4-5.2c-0.4-4.3,1.5-9.3,4.7-12.8c2-2.2,4.3-3.4,6.5-3.4h0
			c2.7,0,4.6,2.2,5.5,4.2l0,0.1L167.6,248.4z M218.4,251l-0.5,0.8l-0.1-1c-0.4-2.8-0.6-5.8-0.7-8.3c-0.9-17.8,4.5-35.5,9.2-35.8
			l0.1,0c0.6,0,1.1,0.3,1.6,0.9c2.1,2.8,2.1,13.2-1.5,25C224.3,239.4,221.6,245.7,218.4,251L218.4,251z M197.3,221.1
			c-2.4,0-4.3,1.9-4.3,4.1c0,2.3,1.9,4.2,4.2,4.2l0,0.3v-0.3c2.3,0,4.2-1.9,4.2-4.1C201.5,223,199.6,221.1,197.3,221.1L197.3,221.1z
			 M345.6,221.1c-2.4,0-4.3,1.9-4.3,4.1c0,2.3,1.9,4.2,4.2,4.2l0,0.3v-0.3c2.3,0,4.2-1.9,4.2-4.1C349.8,223,347.9,221.1,345.6,221.1
			z M461.1,265.1c-1.6,0-2.9,1.3-2.9,2.9c0,1.6,1.3,2.9,2.9,2.9c1.6,0,2.9-1.3,2.9-2.9C464,266.4,462.7,265.1,461.1,265.1z
			 M461.1,270.5c-1.4,0-2.5-1.1-2.5-2.5c0-1.4,1.1-2.5,2.5-2.5s2.5,1.1,2.5,2.5C463.6,269.4,462.5,270.5,461.1,270.5z M462.4,267.3
			c0-0.6-0.3-0.9-1.1-0.9h-1.3v3.3h0.4v-1.5h0.6l1,1.5h0.5l-1-1.5C462,268.2,462.4,267.9,462.4,267.3L462.4,267.3z M461,267.9h-0.5
			v-1.1h0.7c0.4,0,0.7,0.1,0.7,0.6C462,267.8,461.5,267.9,461,267.9z"/>
	</g>
</g>
<g id="Layer_4">
	<path class="st4" d="M26.5,41.9v418.1c0,9.1,7.4,16.4,16.4,16.4h415.1c9.1,0,16.4-7.4,16.4-16.4V41.9c0-9.1-7.4-16.4-16.4-16.4
		H42.9C33.9,25.5,26.5,32.9,26.5,41.9z"/>
</g>
<g id="Layer_5">
	<g>
		<path class="st5" d="M444.2,269.9l0.1,0c8.5,0,14.5-5.9,14.5-14.3c0-4.2-1.2-8-3.4-10.7c-2.3-2.9-5.6-4.5-9.5-4.5l-0.1,0
			c-5.2,0-10.1,4-14.8,12.1l-0.4,0.6l-0.2-0.7c-1.2-3.5-2.3-6.4-2.9-8.1c-0.4-1.2-0.6-1.8-0.7-1.9c-0.2-0.9-1-1.4-2-1.4
			c-0.6,0-1.3,0.2-1.9,0.6c-0.6,0.4-0.9,0.9-1.1,1.5l0,0.1c-4.8,14.8-8.7,22-12,22c-0.5,0-0.9-0.2-1.1-0.5c-0.9-1-0.7-3.3-0.4-6.4
			c0.2-2.3,0.5-5,0.4-7.8c-0.2-5.4-3.1-8.6-7.9-8.6c-6,0-9.9,6.4-11.7,10.2l-0.5,1.1l-0.1-1.3c-0.4-4.7-2-10.4-7-10.4
			c-5.8,0-10.3,6.8-13,12.6l-0.7,1.5l0.1-1.7c0.3-7.7,0.6-12.2,0.8-13.4c0.2-1.3,0.1-2.1-0.3-2.6c-0.4-0.5-1.1-0.6-2.2-0.6
			c-1.9,0.1-2.8,1.3-4.3,5.1c-2.4,6.3-8.4,20.8-13.2,20.8c-1,0-1.7-0.3-2.3-1c-2-2.3-1.2-8.5-0.1-17.2l0.1-0.7
			c0.5-4.1-0.4-5-2.6-5.4c-0.2,0-0.5-0.1-0.7-0.1c-1.8,0-2.6,1.7-4.3,6.4c-2.9,8.4-6.7,17.2-11.2,17.2c-0.2,0-0.3,0-0.5,0
			c-2.3-0.4-2.3-3.9-2.2-8.3c0-2.4,0.1-5.1-0.3-7.5c-0.7-4.4-3.2-7.1-6.7-7.1c-7,0-11.7,8.9-13.9,14.3l-0.5,1.2l-0.2-1.3
			c-0.3-2.3-0.7-6-0.8-10.3l0-0.1l0.1-0.1c13.1-16.4,18.9-28.3,19-38.4c0-6.5-2.9-10.4-8-10.4c-3.7,0-12.5,3.1-15.6,31.7
			c-0.6,5.3-0.9,10.7-0.9,16.1l0,0.1l-0.1,0.1c-6,8.6-18.7,23.5-31.2,23.5c-11.3,0-20.3-9.1-20.3-25.2c0-21.6,15.3-34.8,26.8-34.8
			l0.1,0c2.5,0,4.6,0.7,6.2,2c1.6,1.4,2.5,3.2,2.4,5.5c0,3-1,4.5-1.9,6c-0.2,0.4-0.5,0.8-0.7,1.2c-0.2,0.4-0.4,1-0.1,1.5
			c0.3,0.5,1.1,0.8,2,0.8c2.7,0,6.9-4,6.9-9.9c0-6.2-5.2-12.7-14.6-12.7c-14.2,0-33.3,15.6-33.3,40.9c0,17.9,11.2,30.3,26.4,30.3
			c10.8,0,21.5-7.7,30.9-20.6l0.6-0.8l0,1c0.2,4.7,0.5,8.4,0.8,11.2c0.2,1.7,0.3,3,0.3,3.7c0,1.5,0.2,2.6,0.8,3.2
			c0.5,0.7,1.4,1,2.6,1c2.1,0,2.5-1.4,3.4-5l0.2-1c1-4.3,4.9-18.4,10.7-18.4c0.9,0,1.7,0.3,2.2,0.8c1.3,1.4,1.1,4.1,1,7.4
			c-0.1,2-0.2,4.1,0,6.1c0.5,5.5,2.9,8.2,7.2,8.2c4.4,0,9.1-4.8,11.5-9.2l0.5-0.8l0.2,0.9c0.5,2.4,2.5,10.2,8.8,10.2
			c5.7,0,10.6-6,16-18.4l0.7-1.6l0,1.8c-0.1,4.7-0.4,10.4-0.4,14.9c0,3.4,0.3,4.7,1.9,4.7l0.4,0c1.5,0,2.6-0.9,3.1-2.7
			c4-14.1,7.5-20.7,11-20.7c3.4,0,3.7,6.2,4,17.2l0,0.8c0.1,3.8,0.2,5.5,2.6,5.5c1.8,0,2.3-1.4,3.2-4.9c0.2-0.7,0.4-1.4,0.6-2.2
			c3.3-11.3,6-16,9.3-16c2.9,0,3,3,3.1,4c0.1,2.1-0.1,4.3-0.3,6.4c-0.2,2-0.4,4-0.3,5.9c0.2,4.4,2.6,6.9,6.8,6.9
			c5.5,0,10.4-6.4,14.8-19.1l0.3-0.9l0.3,0.9c0.8,2,1.8,4.7,2.8,7.9l0,0.1l-0.1,0.1c-4.2,9.3-7.2,19.7-7.2,25.3
			c-0.1,7.3,3.3,12.1,8.4,12.1l0.1,0c2.8,0,9.4-1.1,9.5-11.6c0.1-4.3-1-10.4-3-18l-0.2-0.9l0.8,0.5
			C438.3,268.9,441.2,269.8,444.2,269.9L444.2,269.9z M302.7,234.4c0.1-2.6,0.3-5.2,0.7-7.6c2-15.6,6.3-26.4,10.3-26.4h0
			c1.9,0,2.9,1.5,2.9,4.3c-0.1,7-4.5,17.1-13.2,29.9l-0.7,1L302.7,234.4z M431.6,290.3c-0.6,0.9-1.5,1.3-2.7,1.3
			c-1.3,0-2.3-0.5-2.9-1.3c-1.8-2.5-1.3-8.3,1.7-18.8c0.4-1.3,0.8-2.5,1.2-3.8l0.4-1.1l0.3,1.1C433.1,279.9,433.8,287.5,431.6,290.3
			L431.6,290.3z M432.7,259.2l-0.1-0.1l-0.1-0.4l0.1-0.1c4-8.2,8.6-13,12.6-13h0c4.5,0,7.6,4.1,7.6,9.9c0,3.8-1.7,6.1-3.1,7.2
			c-1.6,1.3-3.8,2.1-5.9,2.1C438.5,264.8,434.9,261.7,432.7,259.2z M236.4,260.8c-0.5-0.6-1.3-0.7-1.9-0.1l-0.3,0.3
			c-1.4,1.3-4,3.9-6.9,4c-3.5,0.2-6.1-1.9-7.7-6.2l-0.1-0.2l0.1-0.2c9.6-12.5,16.3-31.7,15.7-44.5c-0.3-5.9-2-13-8.5-13
			c-0.2,0-0.3,0-0.5,0c-2.5,0.1-4.7,1.3-6.7,3.5c-6,6.7-9.2,23.3-8,42.3c0.2,3.9,0.9,7.6,2,10.9l0.1,0.2l-0.1,0.1
			c-3.6,4.2-7.1,6.5-9.9,6.5c-6.8,0-6.6-11.4-6-20.8c0.1-2,0.3-3.3-0.3-4.1c-0.4-0.5-1.1-0.8-2.2-0.8l-0.1,0c-2.4,0-2.9,0.5-4.2,4.1
			c-2.6,7.4-7.6,19.9-12.7,19.9c-1.4,0-2.5-0.5-3.2-1.4c-2.5-3.2-0.6-11,0.9-17.4c0.3-1.1,0.5-2.2,0.8-3.2c0.3-1.5,0.2-2.6-0.3-3.3
			c-0.5-0.7-1.6-0.9-3-0.8c-2.2,0.2-3.6,1.1-4.3,5.2l-0.1,0.9l-0.5-0.6c-1-1.4-2.8-3.1-6.3-3.1c-0.3,0-0.6,0-0.9,0
			c-3.7,0.3-7.9,2.9-11,6.7c-3.6,4.5-5.3,10.1-4.8,15.9c0,0.3,0.1,0.6,0.1,0.9l0,0.2l-0.1,0.1c-2.1,2.3-4.3,3.5-6.5,3.5
			c-3.3,0-5.3-2.5-5.3-6.6c0-7,4.7-28,4.7-35.6c0-8.1-3.6-12.5-9.9-12.5l-0.1,0c-9.1,0-16.3,10.4-23.1,31.7c-0.6,2-1.3,4.2-1.9,6.2
			l-1,3.2l0.3-3.3c0.6-7.4,1.1-14.7,1.3-21.5c0.3-10.3-1.1-16.9-4.3-20.3c-1.7-1.8-4-2.7-7-2.7h-0.1c-11.2,0-16.5,18.9-20.4,32.2
			c-0.9,3.1-2.4,9-3.8,14.4c0.8-9.1,2.4-25.3,2.2-34.6c-0.1-11.4-3.9-16.5-12.3-16.5h-0.1c-4.5,0-7.6,2.2-9.4,4.1
			c-2.9,3-4.7,7.3-4.6,11.1c0.1,2.3,1.5,4.3,2.5,4.3c0.7,0,1.1-0.9,1.2-1.5c2.6-8.5,5.9-12.7,10.2-12.7c1.8,0,3.1,0.5,4.1,1.6
			c3.4,3.6,2.7,13.3,1.6,30.9c-0.4,5.7-0.8,12.1-1.1,19.4c-0.1,1.3-0.1,2.5-0.2,3.6c-0.3,5.1-0.6,9.1,1.3,9.4c2.5,0.4,4.1-0.6,5-3.1
			c1.2-3.7,4-13.8,9.4-32.2c5.2-17.7,9.1-24.1,14.1-24.1c5.8,0,6.2,9.9,5.1,30.8c-0.2,4.4-0.5,9.4-0.8,14.9c0,0.8-0.1,1.5-0.1,2.2
			c-0.2,4.5-0.4,8.1,0.9,9.5c0.4,0.4,1,0.6,1.7,0.6c2.5,0,3.3-2.2,4.5-5.8c0.2-0.6,0.5-1.3,0.7-2c8.6-23.6,14.9-44.1,23.4-44.1
			c2.5,0,4.5,2.1,4.5,6.1c0,9.3-4.6,27.3-4.6,36.5c0,3.3,0.9,6.2,2.7,8.3c1.8,2.1,4.4,3.2,7.4,3.3h0.1c2.8,0,5.8-1.4,8.8-4.1
			l0.3-0.3l0.2,0.3c2,2.7,5.2,4.1,8.6,3.8c5.3-0.4,9.7-5.1,11.4-9.5l0.3-0.9l0.3,0.9c1.2,3.3,3.9,7.3,9.5,6.8
			c6.2-0.5,11.1-8.9,12.9-12.5l0.5-0.9l0.2,1c0.9,5,3.6,13.5,12.2,13.6l0.1,0c3.7,0,7.9-2.3,12.2-6.6l0.3-0.3l0.2,0.4
			c2.9,4.8,6.7,7.3,10.8,7.1c6-0.3,9.7-4.6,10-7.6C237,262,236.8,261.3,236.4,260.8L236.4,260.8z M167.6,248.4
			c-1.8,7.4-5.4,16.4-11.8,16.9c-0.2,0-0.4,0-0.5,0c-2.7,0-4.1-1.7-4.4-5.2c-0.4-4.3,1.5-9.3,4.7-12.8c2-2.2,4.3-3.4,6.5-3.4h0
			c2.7,0,4.6,2.2,5.5,4.2l0,0.1L167.6,248.4z M218.4,251l-0.5,0.8l-0.1-1c-0.4-2.8-0.6-5.8-0.7-8.3c-0.9-17.8,4.5-35.5,9.2-35.8
			l0.1,0c0.6,0,1.1,0.3,1.6,0.9c2.1,2.8,2.1,13.2-1.5,25C224.3,239.4,221.6,245.7,218.4,251L218.4,251z M197.3,221.1
			c-2.4,0-4.3,1.9-4.3,4.1c0,2.3,1.9,4.2,4.2,4.2l0,0.3v-0.3c2.3,0,4.2-1.9,4.2-4.1C201.5,223,199.6,221.1,197.3,221.1L197.3,221.1z
			 M345.6,221.1c-2.4,0-4.3,1.9-4.3,4.1c0,2.3,1.9,4.2,4.2,4.2l0,0.3v-0.3c2.3,0,4.2-1.9,4.2-4.1C349.8,223,347.9,221.1,345.6,221.1
			z M461.1,265.1c-1.6,0-2.9,1.3-2.9,2.9c0,1.6,1.3,2.9,2.9,2.9c1.6,0,2.9-1.3,2.9-2.9C464,266.4,462.7,265.1,461.1,265.1z
			 M461.1,270.5c-1.4,0-2.5-1.1-2.5-2.5c0-1.4,1.1-2.5,2.5-2.5s2.5,1.1,2.5,2.5C463.6,269.4,462.5,270.5,461.1,270.5z M462.4,267.3
			c0-0.6-0.3-0.9-1.1-0.9h-1.3v3.3h0.4v-1.5h0.6l1,1.5h0.5l-1-1.5C462,268.2,462.4,267.9,462.4,267.3L462.4,267.3z M461,267.9h-0.5
			v-1.1h0.7c0.4,0,0.7,0.1,0.7,0.6C462,267.8,461.5,267.9,461,267.9z"/>
	</g>
</g>
</svg>
