<?xml version="1.0" encoding="utf-8"?>
<!-- Generator: Adobe Illustrator 22.1.0, SVG Export Plug-In . SVG Version: 6.00 Build 0)  -->
<svg version="1.1" xmlns="http://www.w3.org/2000/svg" xmlns:xlink="http://www.w3.org/1999/xlink" x="0px" y="0px"
	 viewBox="0 0 500 500" style="enable-background:new 0 0 500 500;" xml:space="preserve">
<style type="text/css">
	.st0{fill:none;stroke:#313131;stroke-width:3;stroke-miterlimit:10;}
	.st1{fill:#313131;}
	.st2{fill:#FFFFFF;}
</style>
<g id="Layer_1">
	<path class="st0" d="M26.5,41.9v418.1c0,9.1,7.4,16.4,16.4,16.4h415.1c9.1,0,16.4-7.4,16.4-16.4V41.9c0-9.1-7.4-16.4-16.4-16.4
		H42.9C33.9,25.5,26.5,32.9,26.5,41.9z"/>
</g>
<g id="Layer_2">
	<path class="st1" d="M57.6,57.9h386.9v386H57.6V57.9z"/>
	<path class="st2" d="M320.4,207.3c0-1.4,0.5-2.2,2.1-2.2h27.6c1.4,0,2.1,0.5,2.1,2.2v142.3c0,1.4-0.4,2.2-2.1,2.2h-27.3
		c-1.8,0-2.3-0.9-2.3-2.3V207.3L320.4,207.3L320.4,207.3z M318.5,166.4c0-11.5,7.9-18.4,17.9-18.4c10.7,0,17.9,7.4,17.9,18.4
		c0,11.9-7.6,18.4-18.3,18.4C325.8,184.8,318.5,178.3,318.5,166.4z M239.3,266.7c-4.9-20-16.5-63.7-20.9-84.8h-0.4
		c-3.7,21.1-13,56.8-20.4,84.8H239.3z M190.4,295.9L176.6,350c-0.4,1.4-0.9,1.8-2.6,1.8h-25.8c-1.8,0-2.1-0.5-1.8-2.7l49.9-179.3
		c0.9-3.2,1.4-6.1,1.8-15c0-1.3,0.5-1.8,1.4-1.8h36.9c1.2,0,1.8,0.4,2.1,1.8l55.9,194.6c0.4,1.4,0,2.3-1.4,2.3h-29.2
		c-1.4,0-2.3-0.4-2.6-1.6l-14.4-54.3H190.4L190.4,295.9z"/>
</g>
</svg>
