<?xml version="1.0" encoding="utf-8"?>
<!-- Generator: Adobe Illustrator 22.1.0, SVG Export Plug-In . SVG Version: 6.00 Build 0)  -->
<svg version="1.1" xmlns="http://www.w3.org/2000/svg" xmlns:xlink="http://www.w3.org/1999/xlink" x="0px" y="0px"
	 viewBox="0 0 500 500" style="enable-background:new 0 0 500 500;" xml:space="preserve">
<style type="text/css">
	.st0{fill:none;stroke:#313131;stroke-width:3;stroke-miterlimit:10;}
	.st1{fill:#313131;}
	.st2{fill:#1F7245;}
	.st3{fill:#FFFFFF;}
	.st4{display:none;}
	.st5{display:inline;fill:none;stroke:#1F7245;stroke-width:3;stroke-miterlimit:10;}
	.st6{display:inline;}
	.st7{display:inline;fill:#FFFFFF;}
</style>
<g id="Layer_4">
	<path class="st0" d="M26.5,41.9v418.1c0,9.1,7.4,16.4,16.4,16.4h415.1c9.1,0,16.4-7.4,16.4-16.4V41.9c0-9.1-7.4-16.4-16.4-16.4
		H42.9C33.9,25.5,26.5,32.9,26.5,41.9z"/>
</g>
<g id="Layer_7">
	<g id="Layer_5_1_">
		<path class="st1" d="M260.2,62h24.7v39.2c46.6,0.3,93.3-0.5,139.8,0.2c10-1,17.9,6.8,16.9,16.9c0.7,81.5-0.2,163,0.4,244.4
			c-0.4,8.8,0.9,18.6-4.2,26.4c-6.4,4.6-14.7,4-22.1,4.4c-43.6-0.2-87.2-0.1-130.9-0.1V437h-27.1c-66.5-12.1-133-23.2-199.5-34.9
			c0-101.7,0-203.5,0-305.1C125.6,85.3,192.8,73.5,260.2,62z"/>
		<path class="st2" d="M284.9,114.3h143.9v266H284.9v-34.9h104.7V328H284.9v-21.8h104.7v-17.4H285c0-8.5,0-17.1-0.1-25.6
			c17.3,5.4,36.9,5.2,52.4-5.1c16.7-9.9,25.4-28.8,26.9-47.6c-19.1-0.1-38.3-0.1-57.4-0.1c0-19,0.2-37.9-0.4-56.9
			c-7.2,1.4-14.3,2.9-21.4,4.4L284.9,114.3L284.9,114.3z"/>
		<rect x="285" y="114" class="st2" width="144" height="266"/>
	</g>
	<g>
		<g>
			<path class="st3" d="M152.1,255.4l-33-63.3h23.6l14.1,28.9c3,6,5.7,12.1,9.4,20.1h0.7c3.1-8,5.6-14.1,8.3-20.1l13.5-28.9h22.6
				l-33,64.4l35.3,66.3h-23.8l-15.4-30.8c-3.3-6.7-6.4-13.3-10.1-21.3h-0.7c-3.2,8-6.2,14.7-9.2,21.3l-15.1,30.8h-22.6L152.1,255.4z
				"/>
		</g>
	</g>
	<rect x="285" y="114" class="st3" width="145" height="267"/>
	<g>
		<rect x="344" y="133" class="st1" width="62" height="31"/>
		<rect x="344" y="182" class="st1" width="62" height="31"/>
		<rect x="344" y="231" class="st1" width="62" height="31"/>
		<rect x="344" y="280" class="st1" width="62" height="31"/>
		<rect x="344" y="329" class="st1" width="62" height="31"/>
		<rect x="264" y="133" class="st1" width="62" height="31"/>
		<rect x="264" y="182" class="st1" width="62" height="31"/>
		<rect x="264" y="231" class="st1" width="62" height="31"/>
		<rect x="264" y="280" class="st1" width="62" height="31"/>
		<rect x="264" y="329" class="st1" width="62" height="31"/>
	</g>
</g>
<g id="Layer_1" class="st4">
	<path class="st5" d="M26.5,41.9v418.1c0,9.1,7.4,16.4,16.4,16.4h415.1c9.1,0,16.4-7.4,16.4-16.4V41.9c0-9.1-7.4-16.4-16.4-16.4
		H42.9C33.9,25.5,26.5,32.9,26.5,41.9z"/>
</g>
<g id="Layer_6" class="st4">
	<g id="Layer_5" class="st6">
		<path class="st2" d="M260.2,63h24.7v39.2c46.6,0.3,93.3-0.5,139.8,0.2c10-1,17.9,6.8,16.9,16.9c0.7,81.5-0.2,163,0.4,244.4
			c-0.4,8.8,0.9,18.6-4.2,26.4c-6.4,4.6-14.7,4-22.1,4.4c-43.6-0.2-87.2-0.1-130.9-0.1V438h-27.1c-66.5-12.1-133-23.2-199.5-34.9
			c0-101.7,0-203.5,0-305.1C125.6,86.3,192.8,74.5,260.2,63z"/>
		<path class="st2" d="M284.9,115.3h143.9v266H284.9v-34.9h104.7V329H284.9v-21.8h104.7v-17.4H285c0-8.5,0-17.1-0.1-25.6
			c17.3,5.4,36.9,5.2,52.4-5.1c16.7-9.9,25.4-28.8,26.9-47.6c-19.1-0.1-38.3-0.1-57.4-0.1c0-19,0.2-37.9-0.4-56.9
			c-7.2,1.4-14.3,2.9-21.4,4.4L284.9,115.3L284.9,115.3z"/>
		<rect x="285" y="115" class="st2" width="144" height="266"/>
	</g>
	<g class="st6">
		<g>
			<path class="st3" d="M152.1,256.4l-33-63.3h23.6l14.1,28.9c3,6,5.7,12.1,9.4,20.1h0.7c3.1-8,5.6-14.1,8.3-20.1l13.5-28.9h22.6
				l-33,64.4l35.3,66.3h-23.8l-15.4-30.8c-3.3-6.7-6.4-13.3-10.1-21.3h-0.7c-3.2,8-6.2,14.7-9.2,21.3l-15.1,30.8h-22.6L152.1,256.4z
				"/>
		</g>
	</g>
	<rect x="285" y="115" class="st7" width="145" height="267"/>
	<g class="st6">
		<rect x="344" y="134" class="st2" width="62" height="31"/>
		<rect x="344" y="183" class="st2" width="62" height="31"/>
		<rect x="344" y="232" class="st2" width="62" height="31"/>
		<rect x="344" y="281" class="st2" width="62" height="31"/>
		<rect x="344" y="330" class="st2" width="62" height="31"/>
		<rect x="264" y="134" class="st2" width="62" height="31"/>
		<rect x="264" y="183" class="st2" width="62" height="31"/>
		<rect x="264" y="232" class="st2" width="62" height="31"/>
		<rect x="264" y="281" class="st2" width="62" height="31"/>
		<rect x="264" y="330" class="st2" width="62" height="31"/>
	</g>
</g>
</svg>
