<?xml version="1.0" encoding="utf-8"?>
<!-- Generator: Adobe Illustrator 22.1.0, SVG Export Plug-In . SVG Version: 6.00 Build 0)  -->
<svg version="1.1" xmlns="http://www.w3.org/2000/svg" xmlns:xlink="http://www.w3.org/1999/xlink" x="0px" y="0px"
	 viewBox="0 0 500 500" style="enable-background:new 0 0 500 500;" xml:space="preserve">
<style type="text/css">
	.st0{display:none;}
	.st1{display:inline;fill:none;stroke:#313131;stroke-width:3;stroke-miterlimit:10;}
	.st2{fill:none;stroke:#4666B0;stroke-width:3;stroke-miterlimit:10;}
	.st3{fill:#264DE4;}
	.st4{fill:#2964F1;}
	.st5{fill:#FFFFFF;}
	.st6{display:inline;}
	.st7{fill:#313131;stroke:#313131;stroke-miterlimit:10;}
	.st8{fill:#808080;stroke:#808080;stroke-miterlimit:10;}
	.st9{fill:#313131;}
</style>
<g id="Layer_4" class="st0">
	<path class="st1" d="M26.5,41.9v418.1c0,9.1,7.4,16.4,16.4,16.4h415.1c9.1,0,16.4-7.4,16.4-16.4V41.9c0-9.1-7.4-16.4-16.4-16.4
		H42.9C33.9,25.5,26.5,32.9,26.5,41.9z"/>
</g>
<g id="Layer_1">
	<g>
		<path class="st2" d="M26.5,41.9v418.1c0,9.1,7.4,16.4,16.4,16.4h415.1c9.1,0,16.4-7.4,16.4-16.4V41.9c0-9.1-7.4-16.4-16.4-16.4
			H42.9C33.9,25.5,26.5,32.9,26.5,41.9z"/>
	</g>
</g>
<g id="Layer_8">
	<g>
		<g>
			<polygon class="st3" points="106,127 134.7,429.4 255.1,463 376.4,428.6 401,127 			"/>
			<polygon class="st4" points="374,152.4 354.3,409.7 255.1,435.1 255.1,152.4 			"/>
		</g>
		<polygon class="st5" points="164,191.9 168.4,228.3 305.2,228.3 300.8,263.9 172,263.9 174.7,299.4 300.8,299.4 295.5,346.5 
			255.5,358 214.6,346.5 209.3,319.8 174.7,319.8 179.1,375.8 255.5,398 329.2,375.8 347,191.9 		"/>
		<polygon points="171,48 221,48 221,68 191,68 191,89 221,89 221,109 171,109 		"/>
		<polygon points="231,46 280,46 280,64 251,64 251,68 280,68 280,109 231,109 231,90 263,90 263,86 231,86 		"/>
		<polygon points="290,46 339,46 339,64 310,64 310,68 339,68 339,109 290,109 290,90 322,90 322,86 290,86 		"/>
	</g>
</g>
<g id="Layer_5" class="st0">
	<g class="st6">
		<g>
			<polygon class="st7" points="106,127 134.7,429.4 255.1,463 376.4,428.6 401,127 			"/>
			<polygon class="st8" points="374,152.4 354.3,409.7 255.1,435.1 255.1,152.4 			"/>
		</g>
		<polygon class="st5" points="164,191.9 168.4,228.3 305.2,228.3 300.8,263.9 172,263.9 174.7,299.4 300.8,299.4 295.5,346.5 
			255.5,358 214.6,346.5 209.3,319.8 174.7,319.8 179.1,375.8 255.5,398 329.2,375.8 347,191.9 		"/>
		<polygon class="st9" points="171,48 221,48 221,68 191,68 191,89 221,89 221,109 171,109 		"/>
		<polygon class="st9" points="231,46 280,46 280,64 251,64 251,68 280,68 280,109 231,109 231,90 263,90 263,86 231,86 		"/>
		<polygon class="st9" points="290,46 339,46 339,64 310,64 310,68 339,68 339,109 290,109 290,90 322,90 322,86 290,86 		"/>
	</g>
</g>
</svg>
