<?xml version="1.0" encoding="utf-8"?>
<!-- Generator: Adobe Illustrator 22.1.0, SVG Export Plug-In . SVG Version: 6.00 Build 0)  -->
<svg version="1.1" xmlns="http://www.w3.org/2000/svg" xmlns:xlink="http://www.w3.org/1999/xlink" x="0px" y="0px"
	 viewBox="0 0 500 500" style="enable-background:new 0 0 500 500;" xml:space="preserve">
<style type="text/css">
	.st0{display:none;}
	.st1{display:inline;fill:none;stroke:#313131;stroke-width:3;stroke-miterlimit:10;}
	.st2{fill:none;stroke:#4A5AC5;stroke-width:3;stroke-miterlimit:10;}
	.st3{fill:#4A5AC5;}
	.st4{display:inline;}
	.st5{fill:#313131;}
</style>
<g id="Layer_4" class="st0">
	<path class="st1" d="M26.5,41.9v418.1c0,9.1,7.4,16.4,16.4,16.4h415.1c9.1,0,16.4-7.4,16.4-16.4V41.9c0-9.1-7.4-16.4-16.4-16.4
		H42.9C33.9,25.5,26.5,32.9,26.5,41.9z"/>
</g>
<g id="Layer_1">
	<path class="st2" d="M26.5,41.9v418.1c0,9.1,7.4,16.4,16.4,16.4h415.1c9.1,0,16.4-7.4,16.4-16.4V41.9c0-9.1-7.4-16.4-16.4-16.4
		H42.9C33.9,25.5,26.5,32.9,26.5,41.9z"/>
</g>
<g id="Layer_6">
	<g>
		<g>
			<polyline class="st3" points="339.7,230 339.7,62 134.5,189.3 306.1,250.9 339.7,230 			"/>
			<polyline class="st3" points="306.1,250.9 290.9,260.4 344.3,279.9 344.3,417.8 149.7,348.2 134.5,357.7 358.4,438 358.4,270 
				306.1,250.9 			"/>
			<polyline class="st3" points="290.9,260.4 134.5,204.2 134.5,357.7 			"/>
		</g>
	</g>
</g>
<g id="Layer_5" class="st0">
	<g class="st4">
		<g>
			<polyline class="st5" points="339.7,230 339.7,62 134.5,189.3 306.1,250.9 339.7,230 			"/>
			<polyline class="st5" points="306.1,250.9 290.9,260.4 344.3,279.9 344.3,417.8 149.7,348.2 134.5,357.7 358.4,438 358.4,270 
				306.1,250.9 			"/>
			<polyline class="st5" points="290.9,260.4 134.5,204.2 134.5,357.7 			"/>
		</g>
	</g>
</g>
</svg>
