<?xml version="1.0" encoding="utf-8"?>
<!-- Generator: Adobe Illustrator 22.1.0, SVG Export Plug-In . SVG Version: 6.00 Build 0)  -->
<svg version="1.1" xmlns="http://www.w3.org/2000/svg" xmlns:xlink="http://www.w3.org/1999/xlink" x="0px" y="0px"
	 viewBox="0 0 500 500" style="enable-background:new 0 0 500 500;" xml:space="preserve">
<style type="text/css">
	.st0{display:none;}
	.st1{display:inline;fill:none;stroke:#313131;stroke-width:3;stroke-miterlimit:10;}
	.st2{display:inline;}
	.st3{fill:#313131;}
	.st4{fill:#1669FF;}
	.st5{fill:none;stroke:#84CEEB;stroke-width:3;stroke-miterlimit:10;}
</style>
<g id="Layer_1" class="st0">
	<g id="Layer_1_1_">
		<path class="st1" d="M26.5,41.9V460c0,9.1,7.4,16.4,16.4,16.4H458c9.1,0,16.4-7.4,16.4-16.4V41.9c0-9.1-7.4-16.4-16.4-16.4H42.9
			C33.9,25.5,26.5,32.9,26.5,41.9z"/>
	</g>
	<g id="Layer_2_1_">
		<g class="st2">
			<path id="Behance" class="st3" d="M399.2,168.8h-92.5v-23h92.5V168.8L399.2,168.8z M245.2,262.9c6,9.2,8.9,20.5,8.9,33.6
				c0,13.6-3.4,25.8-10.2,36.6c-4.4,7.1-9.8,13.2-16.2,18c-7.3,5.6-16,9.5-25.9,11.5c-10,2.1-20.8,3.1-32.4,3.1H66V136.3h110.9
				c27.9,0.5,47.8,8.6,59.5,24.5c7,9.8,10.5,21.5,10.5,35.1c0,14-3.5,25.3-10.6,33.8c-3.9,4.8-9.8,9.1-17.5,13.1
				C230.4,246.9,239.3,253.7,245.2,262.9z M119,226.8h48.6c10,0,18.1-1.9,24.3-5.7s9.3-10.5,9.3-20.2c0-10.7-4.1-17.8-12.3-21.2
				c-7.1-2.4-16.1-3.6-27.1-3.6H119V226.8z M205.8,293.3c0-11.9-4.9-20.2-14.6-24.6c-5.4-2.5-13.1-3.8-23-3.9H119V326h48.5
				c10,0,17.7-1.3,23.3-4C200.8,317,205.8,307.4,205.8,293.3z M433.5,255.9c1.1,7.5,1.6,18.4,1.4,32.7H315.2
				c0.7,16.5,6.4,28.1,17.2,34.7c6.5,4.1,14.4,6.2,23.7,6.2c9.8,0,17.7-2.5,23.9-7.5c3.3-2.7,6.3-6.5,8.8-11.3h43.9
				c-1.1,9.8-6.4,19.7-15.9,29.7c-14.7,16-35.3,24-61.9,24c-21.9,0-41.2-6.8-57.9-20.2c-16.7-13.5-25.1-35.5-25.1-65.9
				c0-28.5,7.5-50.4,22.6-65.6c15.2-15.2,34.7-22.8,58.8-22.8c14.3,0,27.2,2.6,38.7,7.7c11.5,5.1,20.9,13.2,28.4,24.4
				C427.2,231.7,431.5,243,433.5,255.9z M390.3,260.2c-0.8-11.4-4.6-20.1-11.5-26c-6.8-5.9-15.3-8.9-25.5-8.9
				c-11.1,0-19.6,3.2-25.7,9.4s-9.9,14.7-11.5,25.5H390.3L390.3,260.2z"/>
		</g>
	</g>
</g>
<g id="Layer_2">
	<g id="Layer_2_2_">
		<g>
			<path id="Behance_1_" class="st4" d="M399.2,168.8h-92.5v-23h92.5V168.8L399.2,168.8z M245.2,262.9c6,9.2,8.9,20.5,8.9,33.6
				c0,13.6-3.4,25.8-10.2,36.6c-4.4,7.1-9.8,13.2-16.2,18c-7.3,5.6-16,9.5-25.9,11.5c-10,2.1-20.8,3.1-32.4,3.1H66V136.3h110.9
				c27.9,0.5,47.8,8.6,59.5,24.5c7,9.8,10.5,21.5,10.5,35.1c0,14-3.5,25.3-10.6,33.8c-3.9,4.8-9.8,9.1-17.5,13.1
				C230.4,246.9,239.3,253.7,245.2,262.9z M119,226.8h48.6c10,0,18.1-1.9,24.3-5.7s9.3-10.5,9.3-20.2c0-10.7-4.1-17.8-12.3-21.2
				c-7.1-2.4-16.1-3.6-27.1-3.6H119V226.8z M205.8,293.3c0-11.9-4.9-20.2-14.6-24.6c-5.4-2.5-13.1-3.8-23-3.9H119V326h48.5
				c10,0,17.7-1.3,23.3-4C200.8,317,205.8,307.4,205.8,293.3z M433.5,255.9c1.1,7.5,1.6,18.4,1.4,32.7H315.2
				c0.7,16.5,6.4,28.1,17.2,34.7c6.5,4.1,14.4,6.2,23.7,6.2c9.8,0,17.7-2.5,23.9-7.5c3.3-2.7,6.3-6.5,8.8-11.3h43.9
				c-1.1,9.8-6.4,19.7-15.9,29.7c-14.7,16-35.3,24-61.9,24c-21.9,0-41.2-6.8-57.9-20.2c-16.7-13.5-25.1-35.5-25.1-65.9
				c0-28.5,7.5-50.4,22.6-65.6c15.2-15.2,34.7-22.8,58.8-22.8c14.3,0,27.2,2.6,38.7,7.7c11.5,5.1,20.9,13.2,28.4,24.4
				C427.2,231.7,431.5,243,433.5,255.9z M390.3,260.2c-0.8-11.4-4.6-20.1-11.5-26c-6.8-5.9-15.3-8.9-25.5-8.9
				c-11.1,0-19.6,3.2-25.7,9.4s-9.9,14.7-11.5,25.5H390.3L390.3,260.2z"/>
		</g>
	</g>
</g>
<g id="Layer_3">
	<g id="Layer_1_2_">
		<path class="st5" d="M26.1,42v418.1c0,9.1,7.4,16.4,16.4,16.4h415.1c9.1,0,16.4-7.4,16.4-16.4V42c0-9.1-7.4-16.4-16.4-16.4H42.5
			C33.5,25.6,26.1,33,26.1,42z"/>
	</g>
</g>
</svg>
