<?xml version="1.0" encoding="utf-8"?>
<!-- Generator: Adobe Illustrator 22.1.0, SVG Export Plug-In . SVG Version: 6.00 Build 0)  -->
<svg version="1.1" xmlns="http://www.w3.org/2000/svg" xmlns:xlink="http://www.w3.org/1999/xlink" x="0px" y="0px"
	 viewBox="0 0 500 500" style="enable-background:new 0 0 500 500;" xml:space="preserve">
<style type="text/css">
	.st0{display:none;}
	.st1{display:inline;fill:none;stroke:#313131;stroke-width:3;stroke-miterlimit:10;}
	.st2{display:inline;fill:#313131;}
	.st3{display:inline;fill:#FFFFFF;}
	.st4{fill:#31C5F0;}
	.st5{fill:url(#SVGID_1_);}
</style>
<g id="Layer_1" class="st0">
	<path class="st1" d="M26.5,41.9v418.1c0,9.1,7.4,16.4,16.4,16.4h415.1c9.1,0,16.4-7.4,16.4-16.4V41.9c0-9.1-7.4-16.4-16.4-16.4
		H42.9C33.9,25.5,26.5,32.9,26.5,41.9z"/>
</g>
<g id="Layer_2" class="st0">
	<path class="st2" d="M57.6,57.9h386.9v386H57.6V57.9z"/>
	<path class="st3" d="M335.3,223.1c-16.5,0-22.1,8.3-22.1,15.2c0,7.5,3.7,12.7,25.8,24.2c32.7,15.8,42.9,31,42.9,53.3
		c0,33.3-25.4,51.2-59.8,51.2c-18.1,0-33.7-3.7-42.7-9c-1.5-0.6-1.7-1.7-1.7-3.3v-30.6c0-2.1,1-2.7,2.5-1.7
		c13.1,8.5,28.1,12.3,41.9,12.3c16.5,0,23.3-6.9,23.3-16.2c0-7.5-4.8-14.2-25.8-25c-29.6-14.2-41.9-28.5-41.9-52.5
		c0-26.9,21-49.2,57.5-49.2c17.9,0,30.4,2.7,37.3,5.8c1.7,1,2.1,2.7,2.1,4.2v28.5c0,1.7-1,2.7-3.1,2.1
		C362.4,226.7,348.9,223.1,335.3,223.1L335.3,223.1z"/>
	<path class="st3" d="M119.2,137.3c0-1.5,2.9-2.5,4.6-2.5c13.3-0.6,33.1-1,53.7-1c57.7,0,80.2,31.7,80.2,72.1
		c0,52.9-38.3,75.6-85.4,75.6c-7.9,0-10.6-0.4-16.2-0.4v80c0,1.7-0.6,2.5-2.5,2.5h-31.9c-1.7,0-2.5-0.6-2.5-2.5L119.2,137.3
		L119.2,137.3z"/>
	<path class="st2" d="M157,247.9c4.7,0.4,8.4,0.4,16.7,0.4c24.1,0,46.7-8.4,46.7-41.2c0-26.1-16.3-39.3-43.6-39.3
		c-8.2,0-16.1,0.4-19.8,0.6V247.9z"/>
</g>
<g id="Layer_3">
	<path class="st4" d="M26.5,41.9v418.1c0,9.1,7.4,16.4,16.4,16.4h415.1c9.1,0,16.4-7.4,16.4-16.4V41.9c0-9.1-7.4-16.4-16.4-16.4
		H42.9C33.9,25.5,26.5,32.9,26.5,41.9z"/>
</g>
<g id="Layer_4">
	<radialGradient id="SVGID_1_" cx="249.9841" cy="250.9465" r="193.223" gradientUnits="userSpaceOnUse">
		<stop  offset="0" style="stop-color:#34364E;stop-opacity:0.98"/>
		<stop  offset="1" style="stop-color:#0C0824"/>
	</radialGradient>
	<path class="st5" d="M56.6,57.9h386.9v386H56.6V57.9z"/>
	<path class="st4" d="M334.3,223.1c-16.5,0-22.1,8.3-22.1,15.2c0,7.5,3.7,12.7,25.8,24.2c32.7,15.8,42.9,31,42.9,53.3
		c0,33.3-25.4,51.2-59.8,51.2c-18.1,0-33.7-3.7-42.7-9c-1.5-0.6-1.7-1.7-1.7-3.3v-30.6c0-2.1,1-2.7,2.5-1.7
		c13.1,8.5,28.1,12.3,41.9,12.3c16.5,0,23.3-6.9,23.3-16.2c0-7.5-4.8-14.2-25.8-25c-29.6-14.2-41.9-28.5-41.9-52.5
		c0-26.9,21-49.2,57.5-49.2c17.9,0,30.4,2.7,37.3,5.8c1.7,1,2.1,2.7,2.1,4.2v28.5c0,1.7-1,2.7-3.1,2.1
		C361.4,226.7,347.9,223.1,334.3,223.1L334.3,223.1z"/>
	<path class="st4" d="M176.5,133.8c-20.6,0-40.4,0.4-53.7,1c-1.7,0-4.6,1-4.6,2.5h0V361c0,1.9,0.8,2.5,2.5,2.5h31.9
		c1.9,0,2.5-0.8,2.5-2.5v-80c5.6,0,8.3,0.4,16.2,0.4c47.1,0,85.4-22.7,85.4-75.6C256.7,165.4,234.2,133.8,176.5,133.8z M172.7,248.3
		c-8.2,0-11.9,0-16.7-0.4v-79.5c3.7-0.2,11.5-0.6,19.8-0.6c27.4,0,43.6,13.2,43.6,39.3C219.4,239.8,196.8,248.3,172.7,248.3z"/>
</g>
</svg>
