<?xml version="1.0" encoding="utf-8"?>
<!-- Generator: Adobe Illustrator 22.1.0, SVG Export Plug-In . SVG Version: 6.00 Build 0)  -->
<svg version="1.1" xmlns="http://www.w3.org/2000/svg" xmlns:xlink="http://www.w3.org/1999/xlink" x="0px" y="0px"
	 viewBox="0 0 500 500" style="enable-background:new 0 0 500 500;" xml:space="preserve">
<style type="text/css">
	.st0{display:none;}
	.st1{display:inline;fill:none;stroke:#313131;stroke-width:3;stroke-miterlimit:10;}
	.st2{fill:none;stroke:#E44D26;stroke-width:3;stroke-miterlimit:10;}
	.st3{fill:#E44D26;}
	.st4{fill:#F16529;}
	.st5{fill:#FFFFFF;}
	.st6{display:inline;}
	.st7{fill:#313131;}
	.st8{fill:#808080;}
</style>
<g id="Layer_4" class="st0">
	<path class="st1" d="M26.5,41.9v418.1c0,9.1,7.4,16.4,16.4,16.4h415.1c9.1,0,16.4-7.4,16.4-16.4V41.9c0-9.1-7.4-16.4-16.4-16.4
		H42.9C33.9,25.5,26.5,32.9,26.5,41.9z"/>
</g>
<g id="Layer_1">
	<g>
		<path class="st2" d="M26.5,41.9v418.1c0,9.1,7.4,16.4,16.4,16.4h415.1c9.1,0,16.4-7.4,16.4-16.4V41.9c0-9.1-7.4-16.4-16.4-16.4
			H42.9C33.9,25.5,26.5,32.9,26.5,41.9z"/>
	</g>
</g>
<g id="Layer_10">
	<g>
		<polygon class="st3" points="106,127 134.7,429.4 255.1,463 376.4,428.6 401,127 		"/>
		<polygon class="st4" points="374,152.4 354.3,409.7 255.1,435.1 255.1,152.4 		"/>
		<polygon class="st5" points="347.7,189.3 163.4,189.3 173.2,299.1 300.2,299.1 296.1,348.3 256,359.8 213.3,349.1 210.9,323.7 
			174.8,323.7 178.9,377.8 255.1,398.3 331.3,377.8 341.2,270.4 208.4,270.4 203.5,223.7 347.7,223.7 		"/>
		<polygon points="134.7,45.1 134.7,100.8 153.5,100.8 153.5,82.8 170.7,82.8 170.7,100.8 188.8,100.8 188.8,45.1 171.6,45.1 
			171.6,63.9 153.5,63.9 153.5,45.1 		"/>
		<polygon points="197.8,45.1 249.4,45.1 249.4,63.9 233,63.9 233,100.8 215,100.8 214.2,63.9 197.8,63.9 		"/>
		<polygon points="258.4,45.1 258.4,101.6 276.4,101.6 276.4,72.9 289.6,93.4 302.7,72.9 302.7,101.6 320.7,101.6 320.7,45.1 
			301,45.1 289.6,65.6 277.3,45.1 		"/>
		<polygon points="330.5,45.1 330.5,101.6 376.4,101.6 376.4,82.8 350.2,82.8 350.2,45.1 		"/>
	</g>
</g>
<g id="Layer_5" class="st0">
	<g class="st6">
		<polygon class="st7" points="106,127 134.7,429.4 255.1,463 376.4,428.6 401,127 		"/>
		<polygon class="st8" points="374,152.4 354.3,409.7 255.1,435.1 255.1,152.4 		"/>
		<polygon class="st5" points="347.7,189.3 163.4,189.3 173.2,299.1 300.2,299.1 296.1,348.3 256,359.8 213.3,349.1 210.9,323.7 
			174.8,323.7 178.9,377.8 255.1,398.3 331.3,377.8 341.2,270.4 208.4,270.4 203.5,223.7 347.7,223.7 		"/>
		<polygon class="st7" points="134.7,45.1 134.7,100.8 153.5,100.8 153.5,82.8 170.7,82.8 170.7,100.8 188.8,100.8 188.8,45.1 
			171.6,45.1 171.6,63.9 153.5,63.9 153.5,45.1 		"/>
		<polygon class="st7" points="197.8,45.1 249.4,45.1 249.4,63.9 233,63.9 233,100.8 215,100.8 214.2,63.9 197.8,63.9 		"/>
		<polygon class="st7" points="258.4,45.1 258.4,101.6 276.4,101.6 276.4,72.9 289.6,93.4 302.7,72.9 302.7,101.6 320.7,101.6 
			320.7,45.1 301,45.1 289.6,65.6 277.3,45.1 		"/>
		<polygon class="st7" points="330.5,45.1 330.5,101.6 376.4,101.6 376.4,82.8 350.2,82.8 350.2,45.1 		"/>
	</g>
</g>
</svg>
