<?xml version="1.0" encoding="utf-8"?>
<!-- Generator: Adobe Illustrator 22.1.0, SVG Export Plug-In . SVG Version: 6.00 Build 0)  -->
<svg version="1.1" xmlns="http://www.w3.org/2000/svg" xmlns:xlink="http://www.w3.org/1999/xlink" x="0px" y="0px"
	 viewBox="0 0 500 500" style="enable-background:new 0 0 500 500;" xml:space="preserve">
<style type="text/css">
	.st0{fill:none;stroke:#313131;stroke-width:3;stroke-miterlimit:10;}
	.st1{display:none;}
	.st2{display:inline;fill:none;stroke:#6B7489;stroke-width:3;stroke-miterlimit:10;}
	.st3{display:inline;}
	.st4{fill:#6B7489;}
	.st5{display:inline;fill:none;stroke:#6B7489;stroke-width:10;stroke-miterlimit:10;}
	.st6{display:inline;fill:#6B7489;}
	.st7{fill:#313131;}
	.st8{fill:none;stroke:#313131;stroke-width:10;stroke-miterlimit:10;}
</style>
<g id="Layer_4">
	<path class="st0" d="M26,40.4v418.1c0,9.1,7.4,16.4,16.4,16.4h415.1c9.1,0,16.4-7.4,16.4-16.4V40.4c0-9.1-7.4-16.4-16.4-16.4H42.4
		C33.4,24,26,31.4,26,40.4z"/>
</g>
<g id="Layer_6" class="st1">
	<path class="st2" d="M26,42.4v418.1c0,9.1,7.4,16.4,16.4,16.4h415.1c9.1,0,16.4-7.4,16.4-16.4V42.4c0-9.1-7.4-16.4-16.4-16.4H42.4
		C33.4,26,26,33.4,26,42.4z"/>
</g>
<g id="Layer_7" class="st1">
	<g class="st3">
		<g>
			<path class="st4" d="M126.3,238.8v21.8c0,3.6-2,5.7-5.3,5.7c-3.3,0-5.3-2.1-5.3-5.7v-20.5c0-7.8-3.3-11.9-9.4-11.9
				c-6.5,0-10.3,5-10.3,13.4v19.1c0,3.6-1.9,5.7-5.3,5.7c-3.3,0-5.3-2.1-5.3-5.7v-20.5c0-7.8-3.3-11.9-9.4-11.9
				c-6.5,0-10.3,5-10.3,13.4v19.1c0,3.6-1.9,5.7-5.3,5.7c-3.3,0-5.3-2.1-5.3-5.7v-35.9c0-3.5,2-5.7,5.3-5.7s5.2,2.1,5.3,5.5h0.2
				c2.8-3.9,7.3-6.1,12.7-6.1c6.5,0,11.2,2.5,13.9,7.3h0.2c3.3-4.7,8.6-7.3,15.7-7.3C120.4,218.4,126.3,225.4,126.3,238.8z"/>
			<path class="st4" d="M135.3,205.4c0-3.9,2.5-6.4,6.3-6.4c3.9,0,6.4,2.5,6.4,6.4c0,3.9-2.5,6.4-6.4,6.4
				C137.8,211.8,135.3,209.2,135.3,205.4z M146.9,224.7v35.9c0,3.6-1.9,5.7-5.3,5.7c-3.3,0-5.3-2.1-5.3-5.7v-35.9
				c0-3.5,2-5.7,5.3-5.7C145,219,146.9,221.2,146.9,224.7z"/>
			<path class="st4" d="M198.5,256.8c1.1,1.2,1.7,2.5,1.7,4.1c0,3.2-2,5.3-5.2,5.3c-1.8,0-3.3-0.8-4.4-2.1l-13.1-15.2l-13.2,15.4
				c-1.2,1.3-2.5,1.9-4.1,1.9c-3.1,0-5.1-2.1-5.1-5.2c0-1.7,0.6-2.9,1.7-4l13.6-14.5l-13.1-14.1c-1.1-1.2-1.7-2.5-1.7-4.1
				c0-3.2,2-5.3,5.2-5.3c1.8,0,3.3,0.8,4.4,2.2l12.5,14.5l12.8-14.8c1.2-1.3,2.5-1.9,4.1-1.9c3.1,0,5.1,2.1,5.1,5.2
				c0,1.7-0.6,2.9-1.7,4l-13.1,14.1L198.5,256.8z"/>
			<path class="st4" d="M257.6,242.7c0,14.5-9.1,24.2-22.5,24.2c-7,0-12.5-2.5-16-6.7h-0.2v18.4c0,3.6-1.9,5.7-5.3,5.7
				c-3.3,0-5.3-2.1-5.3-5.7v-53.8c0-3.5,2-5.7,5.3-5.7c3.4,0,5.3,2.2,5.3,5.7v0.5h0.2c3.5-4.2,9-6.7,16-6.7
				C248.6,218.4,257.6,228,257.6,242.7z M246.8,242.7c0-8.7-5.7-14.5-13.9-14.5c-8.2,0-14.1,6-14.1,14.5c0,8.5,5.9,14.4,14.1,14.4
				C241.1,257.1,246.8,251.2,246.8,242.7z"/>
			<path class="st4" d="M370.7,239.9v20.7c0,3.6-1.9,5.7-5.3,5.7c-3.3,0-5.3-2.1-5.3-5.7V241c0-8.4-4-12.9-11.6-12.9
				c-7.9,0-12.7,5.5-12.7,14.3v18.1c0,3.6-1.9,5.7-5.3,5.7c-3.3,0-5.3-2.1-5.3-5.7v-35.9c0-3.6,2-5.7,5.3-5.7c3.4,0,5.3,2.1,5.3,5.7
				v0.3h0.2c3.3-4.1,8.5-6.5,15.2-6.5C363.9,218.4,370.7,225.9,370.7,239.9z"/>
			<path class="st4" d="M404.1,266.8c-15.2,0-25.2-9.8-25.2-24.2c0-14.4,10-24.3,24.7-24.3c13.4,0,23.6,9.6,23.6,21.4v0.5
				c0,3.8-2.5,6.2-6.3,6.2h-30.9c1.3,6.7,6.6,11,14.1,11c5,0,8.9-2,11.2-4.7c1.2-1.3,2.4-1.9,3.9-1.9c3.1,0,5,1.9,5,4.9
				c0,1.2-0.4,2.2-1.2,3.2C418.9,263.9,412.2,266.8,404.1,266.8z M390.1,237.9h26.9c-1.4-6.2-6.5-10.1-13.3-10.1
				S391.5,231.8,390.1,237.9z"/>
			<path class="st4" d="M446,203.4v57.2c0,3.6-1.9,5.7-5.3,5.7c-3.3,0-5.3-2.1-5.3-5.7v-57.2c0-3.6,2-5.7,5.3-5.7
				C444.1,197.7,446,199.8,446,203.4z"/>
		</g>
	</g>
	<ellipse class="st5" cx="291.1" cy="242.6" rx="18.1" ry="19.5"/>
	<path class="st6" d="M309.7,266L309.7,266c-2.4,0-4.3-1.9-4.3-4.3v-15.3c0-2.4,1.9-4.3,4.3-4.3h0c2.4,0,4.3,1.9,4.3,4.3v15.3
		C314,264.1,312.1,266,309.7,266z"/>
</g>
<g id="Layer_5" class="st1">
	<circle class="st6" cx="69" cy="309" r="13.5"/>
	<circle class="st6" cx="95.5" cy="309.5" r="7"/>
	<circle class="st6" cx="117.1" cy="309" r="4.2"/>
</g>
<g id="Layer_8" class="st1">
</g>
<g id="Layer_9">
	<circle class="st7" cx="69" cy="309" r="13.5"/>
	<circle class="st7" cx="95.5" cy="309.5" r="7"/>
	<circle class="st7" cx="117.1" cy="309" r="4.2"/>
</g>
<g id="Layer_10">
	<g>
		<g>
			<path class="st7" d="M126.3,238.8v21.8c0,3.6-2,5.7-5.3,5.7c-3.3,0-5.3-2.1-5.3-5.7v-20.5c0-7.8-3.3-11.9-9.4-11.9
				c-6.5,0-10.3,5-10.3,13.4v19.1c0,3.6-1.9,5.7-5.3,5.7c-3.3,0-5.3-2.1-5.3-5.7v-20.5c0-7.8-3.3-11.9-9.4-11.9
				c-6.5,0-10.3,5-10.3,13.4v19.1c0,3.6-1.9,5.7-5.3,5.7c-3.3,0-5.3-2.1-5.3-5.7v-35.9c0-3.5,2-5.7,5.3-5.7s5.2,2.1,5.3,5.5h0.2
				c2.8-3.9,7.3-6.1,12.7-6.1c6.5,0,11.2,2.5,13.9,7.3h0.2c3.3-4.7,8.6-7.3,15.7-7.3C120.4,218.4,126.3,225.4,126.3,238.8z"/>
			<path class="st7" d="M135.3,205.4c0-3.9,2.5-6.4,6.3-6.4c3.9,0,6.4,2.5,6.4,6.4c0,3.9-2.5,6.4-6.4,6.4
				C137.8,211.8,135.3,209.2,135.3,205.4z M146.9,224.7v35.9c0,3.6-1.9,5.7-5.3,5.7c-3.3,0-5.3-2.1-5.3-5.7v-35.9
				c0-3.5,2-5.7,5.3-5.7C145,219,146.9,221.2,146.9,224.7z"/>
			<path class="st7" d="M198.5,256.8c1.1,1.2,1.7,2.5,1.7,4.1c0,3.2-2,5.3-5.2,5.3c-1.8,0-3.3-0.8-4.4-2.1l-13.1-15.2l-13.2,15.4
				c-1.2,1.3-2.5,1.9-4.1,1.9c-3.1,0-5.1-2.1-5.1-5.2c0-1.7,0.6-2.9,1.7-4l13.6-14.5l-13.1-14.1c-1.1-1.2-1.7-2.5-1.7-4.1
				c0-3.2,2-5.3,5.2-5.3c1.8,0,3.3,0.8,4.4,2.2l12.5,14.5l12.8-14.8c1.2-1.3,2.5-1.9,4.1-1.9c3.1,0,5.1,2.1,5.1,5.2
				c0,1.7-0.6,2.9-1.7,4l-13.1,14.1L198.5,256.8z"/>
			<path class="st7" d="M257.6,242.7c0,14.5-9.1,24.2-22.5,24.2c-7,0-12.5-2.5-16-6.7h-0.2v18.4c0,3.6-1.9,5.7-5.3,5.7
				c-3.3,0-5.3-2.1-5.3-5.7v-53.8c0-3.5,2-5.7,5.3-5.7c3.4,0,5.3,2.2,5.3,5.7v0.5h0.2c3.5-4.2,9-6.7,16-6.7
				C248.6,218.4,257.6,228,257.6,242.7z M246.8,242.7c0-8.7-5.7-14.5-13.9-14.5c-8.2,0-14.1,6-14.1,14.5c0,8.5,5.9,14.4,14.1,14.4
				C241.1,257.1,246.8,251.2,246.8,242.7z"/>
			<path class="st7" d="M370.7,239.9v20.7c0,3.6-1.9,5.7-5.3,5.7c-3.3,0-5.3-2.1-5.3-5.7V241c0-8.4-4-12.9-11.6-12.9
				c-7.9,0-12.7,5.5-12.7,14.3v18.1c0,3.6-1.9,5.7-5.3,5.7c-3.3,0-5.3-2.1-5.3-5.7v-35.9c0-3.6,2-5.7,5.3-5.7c3.4,0,5.3,2.1,5.3,5.7
				v0.3h0.2c3.3-4.1,8.5-6.5,15.2-6.5C363.9,218.4,370.7,225.9,370.7,239.9z"/>
			<path class="st7" d="M404.1,266.8c-15.2,0-25.2-9.8-25.2-24.2c0-14.4,10-24.3,24.7-24.3c13.4,0,23.6,9.6,23.6,21.4v0.5
				c0,3.8-2.5,6.2-6.3,6.2h-30.9c1.3,6.7,6.6,11,14.1,11c5,0,8.9-2,11.2-4.7c1.2-1.3,2.4-1.9,3.9-1.9c3.1,0,5,1.9,5,4.9
				c0,1.2-0.4,2.2-1.2,3.2C418.9,263.9,412.2,266.8,404.1,266.8z M390.1,237.9h26.9c-1.4-6.2-6.5-10.1-13.3-10.1
				S391.5,231.8,390.1,237.9z"/>
			<path class="st7" d="M446,203.4v57.2c0,3.6-1.9,5.7-5.3,5.7c-3.3,0-5.3-2.1-5.3-5.7v-57.2c0-3.6,2-5.7,5.3-5.7
				C444.1,197.7,446,199.8,446,203.4z"/>
		</g>
	</g>
	<ellipse class="st8" cx="291.1" cy="242.6" rx="18.1" ry="19.5"/>
	<path class="st7" d="M309.7,266L309.7,266c-2.4,0-4.3-1.9-4.3-4.3v-15.3c0-2.4,1.9-4.3,4.3-4.3h0c2.4,0,4.3,1.9,4.3,4.3v15.3
		C314,264.1,312.1,266,309.7,266z"/>
</g>
</svg>
