<?xml version="1.0" encoding="utf-8"?>
<!-- Generator: Adobe Illustrator 22.1.0, SVG Export Plug-In . SVG Version: 6.00 Build 0)  -->
<svg version="1.1" xmlns="http://www.w3.org/2000/svg" xmlns:xlink="http://www.w3.org/1999/xlink" x="0px" y="0px"
	 viewBox="0 0 500 500" style="enable-background:new 0 0 500 500;" xml:space="preserve">
<style type="text/css">
	.st0{display:none;}
	.st1{display:inline;fill:none;stroke:#313131;stroke-width:3;stroke-miterlimit:10;}
	.st2{fill:none;stroke:#E72B42;stroke-width:3;stroke-miterlimit:10;}
	.st3{fill:#E72B42;}
	.st4{display:inline;}
	.st5{fill:#808080;}
	.st6{fill:none;stroke:#808080;stroke-miterlimit:10;}
	.st7{fill:#313131;stroke:#313131;}
	.st8{fill:#313131;}
</style>
<g id="Layer_4" class="st0">
	<path class="st1" d="M26.5,41.9v418.1c0,9.1,7.4,16.4,16.4,16.4h415.1c9.1,0,16.4-7.4,16.4-16.4V41.9c0-9.1-7.4-16.4-16.4-16.4
		H42.9C33.9,25.5,26.5,32.9,26.5,41.9z"/>
</g>
<g id="Layer_5">
	<path class="st2" d="M26.5,41.9v418.1c0,9.1,7.4,16.4,16.4,16.4h415.1c9.1,0,16.4-7.4,16.4-16.4V41.9c0-9.1-7.4-16.4-16.4-16.4
		H42.9C33.9,25.5,26.5,32.9,26.5,41.9z"/>
</g>
<g id="Layer_1">
	<path class="st3" d="M323.1,186.4c-11.1-19.7-43.6-24-43.6-24s15,16.4-4.2,29.3c-12.1,8.2-16.9,18.8-11.7,30.4
		c4,8.9,12.4,12.5,21.5,13.9c-4.3-8.2-1-18.2-0.6-19.2c8.5,12.8,24.5,0,16.4-13.9c10.5,2.3,12.1,20.6,4,32
		c11.9-3.8,19.9-13.2,22.1-21.6C329.3,204.4,327.5,194.2,323.1,186.4L323.1,186.4z"/>
	<g>
		<g>
			<path d="M66.7,320.9c-1.9,1-5.5,1.8-10.7,1.8s-8.8-0.7-10.9-1.8V215.3c5.1-2.8,12.1-4.3,21.6-4.3v22.6c0,8.5-0.7,17.6-1.9,24.4
				H66c3.3-7.4,10.4-13.1,24.1-13.1c11.6,0,25.2,4,25.2,28.6v47.4c-1.9,1-5.5,1.8-10.7,1.8s-8.8-0.7-10.9-1.8v-43.5
				c0-7.9-2.8-13-11.8-13c-8,0-12.4,4-15.2,8.8V320.9z"/>
			<path d="M205.2,283.8c0,26.8-14.1,41.3-37.1,41.3c-24,0-37.1-13.7-37.1-41.3c0-24.4,15-38.9,37.1-38.9
				C190.6,244.9,205.2,258.5,205.2,283.8z M168.1,307.3c10.3,0,14.9-8.6,14.9-23.4c0-13.1-5.4-21.3-14.9-21.3
				c-10,0-14.9,8.2-14.9,21.3C153.2,298.7,158.3,307.3,168.1,307.3z"/>
			<path d="M264.1,304c-2.6,0.9-5.2,1.2-7.8,1.2c-8,0-10.1-3.7-10.1-10.9v-28H266c0.9-1.8,1.3-5.5,1.3-9.2c0-3.7-0.4-7.4-1.3-9.2
				h-19.8v-19.8c-0.1-0.4-0.2-0.9-0.2-1.3c0,0,0,0,0-0.1c-0.1-0.3-0.1-0.5-0.1-0.8c-8.2,0.2-16,2.1-21.3,5.9v16.1h-8.5
				c-1.2,3-2.1,6.9-2.5,11c1.1,3,2.7,5.8,4,7.5h7v31.3c0,16.4,5.4,27.4,23.7,27.4c7.4,0,12.7-1.8,17-4.9c1-1.3,1.9-3.1,2.7-5.2
				C268.8,310.6,268,306.7,264.1,304z"/>
			<path d="M305.4,291.5c0-0.5,0.1-1,0.2-1.5v-40.9c-1.9-1-5.5-1.8-10.7-1.8c-4.1,0-7.1,0.5-9.2,1.1c-0.3,29.2,2.3,58.3,2.1,87.5
				c0,4.6-4.6,6.6-7.9,5.5c-2.4,0.1-4.9,0.3-7.3,0.4c-1.3,1.4-2.6,2.8-4.1,4.1c2.4,6.6,7.1,11.2,13.3,12.8
				c14.6-12.6,22.4-26,23.6-52.3C305.4,301.5,305.4,296.5,305.4,291.5z"/>
			<path d="M386,303.8c0-0.1,0-0.1,0-0.2c0-0.4,0-0.8,0-1.2c0-0.2,0-0.4,0-0.5c-0.1-0.5-0.1-1-0.1-1.6v-25.8
				c0-22-10.3-29.6-31.7-29.6c-11,0-20.3,1.9-25.6,4.9c-3.4,4.9-4.2,14.1-2.4,20c6.7-3.9,15.2-6.3,23.8-6.3
				c9.8,0,14.3,3.3,14.3,12.4v2.1c-4.3-1.3-8.6-1.9-13.6-1.9c-17.3,0-30.4,7-30.4,25.2c0,17.3,11.3,23.8,24.4,23.8
				c10.3,0,17.3-4.2,20.6-10.7h1.2c1.5,7,6,10.7,14.6,10.7c1.8,0,3.4-0.2,5-0.5C385.8,317.6,386,310.7,386,303.8z M364.7,302.4
				c-3,3.7-7.7,5.2-12.5,5.2c-6,0-10.3-2.1-10.3-7.9c0-5.7,4.3-9.2,13-9.2c3.6,0,6.8,0.6,9.8,1.8V302.4z"/>
			<path d="M447.2,266.4c0.6-0.2,1.3-0.4,2-0.4c2.8,0,5.6-0.1,8.4-0.2c0.3-1.6,0.5-3.5,0.5-6c0-5.7-1-9.8-3.1-13.6
				c-1.8-0.9-4.2-1.3-7-1.3c-12.2,0-17,7-19.1,15.2h-1.2l-1.5-13.7c-7.1,0-13.4,1.2-17.4,3.4v71c2.1,1,5.7,1.8,10.9,1.8
				s8.8-0.7,10.7-1.8v-41.5c2.8-7.7,8.5-13,16.1-13C446.8,266.4,447,266.4,447.2,266.4z"/>
		</g>
		<g>
			<g>
				<path d="M65.8,257.9c3.5-1.5,7-3,10.6-4.6c1.8-0.8,0.2-3.3-1.5-2.6c-3.5,1.5-7,3-10.6,4.6C62.5,256.1,64,258.7,65.8,257.9
					L65.8,257.9z"/>
			</g>
		</g>
		<g>
			<g>
				<path d="M73.9,249.5c-4.6,0.6-8.7,2.4-12.2,5.6c-1.4,1.3,0.7,3.4,2.1,2.1c2.8-2.6,6.2-4.3,10-4.7
					C75.8,252.3,75.8,249.3,73.9,249.5L73.9,249.5z"/>
			</g>
		</g>
		<g>
			<g>
				<path d="M74.2,252.2c1.9,0,1.9-3,0-3C72.3,249.2,72.3,252.2,74.2,252.2L74.2,252.2z"/>
			</g>
		</g>
		<g>
			<g>
				<path d="M76.1,247.9c-1.2,0.4-2.4,0.8-3.6,1.4c-1,0.4-2.1,0.8-3,1.5c-1.5,1.1,0,3.8,1.5,2.6c1.6-1.2,4-2,5.9-2.6
					C78.7,250.2,77.9,247.4,76.1,247.9L76.1,247.9z"/>
			</g>
		</g>
		<g>
			<g>
				<path d="M301.8,315.4c-1.1,9.5,1.7,19.3-0.7,28.7c-1.2,4.7-3.7,8.9-8.1,11.1c-4.5,2.2-9.7,1.9-14.5,1.6c-1.9-0.1-1.9,2.9,0,3
					c9.9,0.6,19.5-0.7,24-10.6c4.8-10.7,1-22.5,2.3-33.7C305,313.5,302,313.5,301.8,315.4L301.8,315.4z"/>
			</g>
		</g>
		<g>
			<g>
				<path d="M279,356.7c-4.6-1.3-6-5.6-4.7-9.9c0.6-1.8-2.3-2.6-2.9-0.8c-1.8,5.9,0.6,11.8,6.7,13.6
					C280.1,360.1,280.9,357.2,279,356.7L279,356.7z"/>
			</g>
		</g>
		<g>
			<g>
				<path d="M273.6,342.1c-5.8-1.3-7.1,4.9-5.7,9.3c1.6,5.2,6,9,11.6,8.5c3.8-0.3,7.4-2.2,10.9-3.6c2.8-1.1,5.8-2.1,7.9-4.5
					c4.8-5.7,2.1-14,4.5-20.5c-1-0.1-2-0.3-2.9-0.4c0,3.4-0.3,6.6-0.8,9.9c1,0,1.9,0,2.9,0c-0.3-1.3-0.4-2.6-0.2-4
					c-1,0.1-2,0.3-2.9,0.4c0.1,0.8,0.2,1.5,0.3,2.3c0,1.5,2,2,2.8,0.8c0.3-0.5,0.7-1,1-1.6c1.1-1.6-1.5-3.1-2.6-1.5
					c-1.7,2.6-8.5,16.3-12.1,14.7c0.1,0.8,0.2,1.6,0.3,2.4c4.6-4.9,8.5-10.2,11.6-16.2c0.9-1.7-1.7-3.2-2.6-1.5
					c-3,5.7-6.7,10.9-11.1,15.6c-0.6,0.6-0.6,2,0.3,2.4c3.1,1.3,5.2,0.3,7.3-2.2c3.4-4.1,6-9.2,8.9-13.6c-0.9-0.5-1.7-1-2.6-1.5
					c-0.3,0.5-0.7,1-1,1.6c0.9,0.3,1.9,0.5,2.8,0.8c0-1.5,0-1.6-0.4-3.1c-0.4-1.7-2.8-1.2-2.9,0.4c-0.1,1.7,0,3.1,0.3,4.8
					c0.3,1.4,2.7,1.5,2.9,0c0.5-3.6,0.8-7.1,0.9-10.7c0-1.8-2.4-1.9-2.9-0.4c-2.7,7.5,1.1,17.8-7.7,21.9c-3.4,1.6-7.2,3.3-10.9,4.2
					c-3.3,0.8-6,0.5-8.3-2c-0.4-0.5-6-10.8-0.2-9.5C274.7,345.4,275.5,342.5,273.6,342.1L273.6,342.1z"/>
			</g>
		</g>
		<g>
			<g>
				<path d="M302,307.5c0.3,9.2,0.4,18.4,0,27.6c-0.1,1.7,2.7,2.1,2.9,0.4c0.3-2,0.3-3.6,0-5.6c-0.4-1.9-3.3-1.1-2.9,0.8
					c0,1.3,0,2.7,0,4c1,0.1,2,0.3,2.9,0.4c0.3-9.2,0.3-18.4,0-27.6C305,305.6,302,305.5,302,307.5L302,307.5z"/>
			</g>
		</g>
		<g>
			<g>
				<path d="M302,331.3c0,1.8,0,3.5-0.1,5.3c-0.1,1.9,2.9,1.9,3,0c0.1-1.8,0.2-3.5,0.1-5.3C304.9,329.4,301.9,329.4,302,331.3
					L302,331.3z"/>
			</g>
		</g>
		<g>
			<g>
				<path d="M302,333c0.2,2,0.1,4-0.5,6c-0.5,1.9,2.4,2.7,2.9,0.8c0.6-2.2,0.9-4.5,0.6-6.8C304.8,331.1,301.8,331.1,302,333L302,333
					z"/>
			</g>
		</g>
		<g>
			<g>
				<path d="M267.8,346.3c-0.2,4.6,0.1,10.5,5,12.7c5,2.3,11.8-2.2,16.3-4.2c1.8-0.8,0.2-3.3-1.5-2.6c-3.3,1.4-6.9,3.6-10.4,4.2
					c-6.3,1-6.5-5.9-6.3-10.2C270.9,344.4,267.9,344.4,267.8,346.3L267.8,346.3z"/>
			</g>
		</g>
		<g>
			<g>
				<path d="M290.2,339.3c0.2-8.6,0.7-17.1,1.4-25.7c0.2-1.9-2.8-1.9-3,0c-0.7,8.6-1.1,17.1-1.4,25.7
					C287.2,341.3,290.2,341.3,290.2,339.3L290.2,339.3z"/>
			</g>
		</g>
		<g>
			<g>
				<path d="M271.8,345.3c4.8-0.5,11.4-0.2,15.3-3.6c4.2-3.7,4.4-11.1,5.1-16.2c0.3-1.9-2.6-2.7-2.9-0.8c-0.6,4.1-0.8,10.4-3.4,13.8
					c-3,3.8-9.7,3.3-14.1,3.8C269.9,342.5,269.9,345.5,271.8,345.3L271.8,345.3z"/>
			</g>
		</g>
		<g>
			<g>
				<path d="M288.5,312.1c-0.1,0.3-0.2,0.5-0.3,0.8c-0.3,0.7,0.3,1.7,1,1.8c0.9,0.2,1.5-0.3,1.8-1c0.1-0.3,0.2-0.5,0.3-0.8
					c0.3-0.7-0.3-1.7-1-1.8C289.4,310.8,288.8,311.3,288.5,312.1L288.5,312.1z"/>
			</g>
		</g>
		<g>
			<g>
				<path d="M287.2,304.2c0,7.6,0,15.1-0.1,22.7c-0.1,4.2,0.6,9.2-2.3,12.7c-1.7,2.1-4.3,3.6-6.1,5.6c-1.3,1.4,0.8,3.5,2.1,2.1
					c4.8-5.2,8.9-7,9.2-14.6c0.4-9.5,0.2-19,0.2-28.5C290.2,302.3,287.2,302.2,287.2,304.2L287.2,304.2z"/>
			</g>
		</g>
		<g>
			<g>
				<path d="M291,359c5.6-0.2,10.6-1.3,12.4-7.2c2-6.7,2.7-14.4,1.5-21.3c-0.3-1.9-3.2-1.1-2.9,0.8c0.9,5.1,0.4,10-0.5,15
					c-0.3,1.5-0.5,3.3-1,4.7c-1.5,4.5-5.4,4.9-9.5,5C289,356.1,289,359.1,291,359L291,359z"/>
			</g>
		</g>
		<g>
			<g>
				<path d="M276.6,359.8c1.9,0,1.9-3,0-3C274.7,356.8,274.7,359.8,276.6,359.8L276.6,359.8z"/>
			</g>
		</g>
		<g>
			<g>
				<path d="M276.6,360c1.9,0,1.9-3,0-3C274.7,357,274.7,360,276.6,360L276.6,360z"/>
			</g>
		</g>
		<g>
			<g>
				<path d="M293.5,355.7c-5.9,0.5-11.7,0.5-17.6,0.3c-1.9-0.1-1.9,2.9,0,3c5.9,0.3,11.7,0.2,17.6-0.3
					C295.4,358.6,295.4,355.6,293.5,355.7L293.5,355.7z"/>
			</g>
		</g>
		<g>
			<g>
				<path d="M270.7,357.3c2.1,4.5,9.5,3.3,13.4,3.2c5-0.1,12.7,0.8,17.1-2.3c4.1-2.9,4.1-10,4.4-14.6c0.5-8.2,0.1-16.4-0.9-24.5
					c-0.2-1.9-3.2-1.9-3,0c1.2,9.7,1.8,19.8,0.4,29.6c-0.5,3.3-1.1,7-4.8,8c-2.3,0.6-4.9,0.5-7.3,0.6c-3.1,0.1-15,2-16.7-1.5
					C272.4,354,269.9,355.6,270.7,357.3L270.7,357.3z"/>
			</g>
		</g>
		<g>
			<g>
				<path d="M302.6,291.4c0.4,17,1.8,35.1-1.2,51.9c-0.3,1.9,2.6,2.7,2.9,0.8c3.1-17.1,1.8-35.4,1.4-52.7
					C305.5,289.5,302.5,289.5,302.6,291.4L302.6,291.4z"/>
			</g>
		</g>
		<g>
			<g>
				<path d="M303.2,320.3c0.7,12.1,1.3,24.3-3.4,35.8c-0.7,1.8,2.2,2.6,2.9,0.8c4.8-11.7,4.3-24.2,3.5-36.6
					C306,318.4,303,318.4,303.2,320.3L303.2,320.3z"/>
			</g>
		</g>
		<g>
			<g>
				<path d="M428.3,255.8c5.2-6.8,13.2-9.2,21.4-6.5c1.8,0.6,2.6-2.3,0.8-2.9c-9-3-18.5-0.3-24.3,7.2
					C425,255.2,427.1,257.4,428.3,255.8L428.3,255.8z"/>
			</g>
		</g>
		<g>
			<g>
				<path d="M431.7,251.5c-1.4,2.1-3.3,3.3-5.3,4.8c-1.4,1.1-2.3,2.6-1.6,4.3c0.6,1.5,2.2,2.3,3.7,1.5c1.8-0.9,2.8-3.2,3.2-5
					c0.3-1.3-1-2.3-2.2-1.7c-1.7,0.8-3.4,2.3-3.9,4.2c-0.4,1.5,0.3,3.3,2.1,3.3c1.9,0,1.9-3,0-3c0.6,0.5,1,0.4,1.2-0.2
					c0.2-0.2,0.4-0.5,0.6-0.7c0.5-0.5,1-0.8,1.6-1c-0.7-0.6-1.5-1.1-2.2-1.7c-0.2,0.6-0.3,1.2-0.7,1.8c-0.1,0.2-1.1,1.2-0.6,1.3
					c-0.2,0,2.2-1.9,2.4-2c1.7-1.3,3.1-2.8,4.3-4.5C435.3,251.5,432.7,250,431.7,251.5L431.7,251.5z"/>
			</g>
		</g>
		<g>
			<g>
				<path d="M367.9,317.2c-0.4,2.9,0.3,5.3,3.3,6.4c3.6,1.3,7.6,1.2,11.3,0.7c1.9-0.3,1.1-3.2-0.8-2.9c-2.4,0.4-4.9,0.4-7.3,0
					c-0.7-0.1-1.8-0.3-2.4-0.6c-1.6-0.8-1.3-2.1-1.1-3.5C371.2,315.3,368.2,315.3,367.9,317.2L367.9,317.2z"/>
			</g>
		</g>
		<g>
			<g>
				<path d="M367.1,315.5c0.2,2.5,0.5,5.2,2.4,7.1c1.9,1.9,4.2,1.8,6.6,0.8c1.8-0.7,1-3.6-0.8-2.9c-1.5,0.6-2.8,1-3.9-0.4
					c-1-1.3-1.1-3.1-1.2-4.6C370,313.6,367,313.5,367.1,315.5L367.1,315.5z"/>
			</g>
		</g>
		<g>
			<g>
				<path d="M226.9,233c2.5-1.6,6.1-2.2,8.9-3.1c2.9-0.9,6-2.2,9.1-2.2c-0.5-0.6-1-1.3-1.4-1.9c-1.7,5.8-2.9,11.8-3.7,17.8
					c-0.2,1.9,2.8,1.9,3,0c0.7-5.8,1.9-11.4,3.6-17c0.3-0.9-0.5-1.9-1.4-1.9c-3.4,0-6.7,1.3-9.9,2.3c-3.1,1-6.9,1.6-9.6,3.4
					C223.8,231.5,225.3,234.1,226.9,233L226.9,233z"/>
			</g>
		</g>
		<g>
			<g>
				<path d="M229.1,231.8c4.1-1.5,8.7-3.5,13.1-3.6c1.9,0,1.9-3,0-3c-4.7,0.1-9.5,2.2-13.9,3.7C226.5,229.6,227.3,232.5,229.1,231.8
					L229.1,231.8z"/>
			</g>
		</g>
	</g>
</g>
<g id="Layer_3" class="st0">
	<g id="XMLID_1_" class="st4">
		<g>
			<path class="st5" d="M323.1,186.4c4.5,7.9,6.2,18.1,3.9,26.9c-2.2,8.4-10.1,17.8-22.1,21.6c8.1-11.4,6.5-29.7-4-32
				c8,13.9-8,26.8-16.4,13.9c-0.4,1.1-3.7,11.1,0.6,19.2c-9.1-1.4-17.5-5-21.5-13.9c-5.2-11.6-0.4-22.2,11.7-30.4
				c19.2-12.9,4.2-29.3,4.2-29.3S312,166.7,323.1,186.4z"/>
		</g>
		<g>
			<path class="st6" d="M323.1,186.4c-11.1-19.7-43.6-24-43.6-24s15,16.4-4.2,29.3c-12.1,8.2-16.9,18.8-11.7,30.4
				c4,8.9,12.4,12.5,21.5,13.9c-4.3-8.2-1-18.2-0.6-19.2c8.5,12.8,24.5,0,16.4-13.9c10.5,2.3,12.1,20.6,4,32
				c11.9-3.8,19.9-13.2,22.1-21.6C329.3,204.4,327.5,194.2,323.1,186.4z"/>
		</g>
	</g>
	<g class="st4">
		<g>
			<path class="st7" d="M66.7,320.9c-1.9,1-5.5,1.8-10.7,1.8s-8.8-0.7-10.9-1.8V215.3c5.1-2.8,12.1-4.3,21.6-4.3v22.6
				c0,8.5-0.7,17.6-1.9,24.4H66c3.3-7.4,10.4-13.1,24.1-13.1c11.6,0,25.2,4,25.2,28.6v47.4c-1.9,1-5.5,1.8-10.7,1.8
				s-8.8-0.7-10.9-1.8v-43.5c0-7.9-2.8-13-11.8-13c-8,0-12.4,4-15.2,8.8V320.9z"/>
			<path class="st7" d="M205.2,283.8c0,26.8-14.1,41.3-37.1,41.3c-24,0-37.1-13.7-37.1-41.3c0-24.4,15-38.9,37.1-38.9
				C190.6,244.9,205.2,258.5,205.2,283.8z M168.1,307.3c10.3,0,14.9-8.6,14.9-23.4c0-13.1-5.4-21.3-14.9-21.3
				c-10,0-14.9,8.2-14.9,21.3C153.2,298.7,158.3,307.3,168.1,307.3z"/>
			<path class="st7" d="M264.1,304c-2.6,0.9-5.2,1.2-7.8,1.2c-8,0-10.1-3.7-10.1-10.9v-28H266c0.9-1.8,1.3-5.5,1.3-9.2
				c0-3.7-0.4-7.4-1.3-9.2h-19.8v-19.8c-0.1-0.4-0.2-0.9-0.2-1.3c0,0,0,0,0-0.1c-0.1-0.3-0.1-0.5-0.1-0.8c-8.2,0.2-16,2.1-21.3,5.9
				v16.1h-8.5c-1.2,3-2.1,6.9-2.5,11c1.1,3,2.7,5.8,4,7.5h7v31.3c0,16.4,5.4,27.4,23.7,27.4c7.4,0,12.7-1.8,17-4.9
				c1-1.3,1.9-3.1,2.7-5.2C268.8,310.6,268,306.7,264.1,304z"/>
			<path class="st7" d="M305.4,291.5c0-0.5,0.1-1,0.2-1.5v-40.9c-1.9-1-5.5-1.8-10.7-1.8c-4.1,0-7.1,0.5-9.2,1.1
				c-0.3,29.2,2.3,58.3,2.1,87.5c0,4.6-4.6,6.6-7.9,5.5c-2.4,0.1-4.9,0.3-7.3,0.4c-1.3,1.4-2.6,2.8-4.1,4.1
				c2.4,6.6,7.1,11.2,13.3,12.8c14.6-12.6,22.4-26,23.6-52.3C305.4,301.5,305.4,296.5,305.4,291.5z"/>
			<path class="st7" d="M386,303.8c0-0.1,0-0.1,0-0.2c0-0.4,0-0.8,0-1.2c0-0.2,0-0.4,0-0.5c-0.1-0.5-0.1-1-0.1-1.6v-25.8
				c0-22-10.3-29.6-31.7-29.6c-11,0-20.3,1.9-25.6,4.9c-3.4,4.9-4.2,14.1-2.4,20c6.7-3.9,15.2-6.3,23.8-6.3
				c9.8,0,14.3,3.3,14.3,12.4v2.1c-4.3-1.3-8.6-1.9-13.6-1.9c-17.3,0-30.4,7-30.4,25.2c0,17.3,11.3,23.8,24.4,23.8
				c10.3,0,17.3-4.2,20.6-10.7h1.2c1.5,7,6,10.7,14.6,10.7c1.8,0,3.4-0.2,5-0.5C385.8,317.6,386,310.7,386,303.8z M364.7,302.4
				c-3,3.7-7.7,5.2-12.5,5.2c-6,0-10.3-2.1-10.3-7.9c0-5.7,4.3-9.2,13-9.2c3.6,0,6.8,0.6,9.8,1.8V302.4z"/>
			<path class="st7" d="M447.2,266.4c0.6-0.2,1.3-0.4,2-0.4c2.8,0,5.6-0.1,8.4-0.2c0.3-1.6,0.5-3.5,0.5-6c0-5.7-1-9.8-3.1-13.6
				c-1.8-0.9-4.2-1.3-7-1.3c-12.2,0-17,7-19.1,15.2h-1.2l-1.5-13.7c-7.1,0-13.4,1.2-17.4,3.4v71c2.1,1,5.7,1.8,10.9,1.8
				s8.8-0.7,10.7-1.8v-41.5c2.8-7.7,8.5-13,16.1-13C446.8,266.4,447,266.4,447.2,266.4z"/>
		</g>
		<g>
			<g>
				<path class="st8" d="M65.8,257.9c3.5-1.5,7-3,10.6-4.6c1.8-0.8,0.2-3.3-1.5-2.6c-3.5,1.5-7,3-10.6,4.6
					C62.5,256.1,64,258.7,65.8,257.9L65.8,257.9z"/>
			</g>
		</g>
		<g>
			<path d="M73.9,251c-4.1,0.4-8.1,2.3-11.1,5.2"/>
			<g>
				<path class="st8" d="M73.9,249.5c-4.6,0.6-8.7,2.4-12.2,5.6c-1.4,1.3,0.7,3.4,2.1,2.1c2.8-2.6,6.2-4.3,10-4.7
					C75.8,252.3,75.8,249.3,73.9,249.5L73.9,249.5z"/>
			</g>
		</g>
		<g>
			<g>
				<path class="st8" d="M74.2,252.2c1.9,0,1.9-3,0-3C72.3,249.2,72.3,252.2,74.2,252.2L74.2,252.2z"/>
			</g>
		</g>
		<g>
			<g>
				<path class="st8" d="M76.1,247.9c-1.2,0.4-2.4,0.8-3.6,1.4c-1,0.4-2.1,0.8-3,1.5c-1.5,1.1,0,3.8,1.5,2.6c1.6-1.2,4-2,5.9-2.6
					C78.7,250.2,77.9,247.4,76.1,247.9L76.1,247.9z"/>
			</g>
		</g>
		<g>
			<g>
				<path class="st8" d="M301.8,315.4c-1.1,9.5,1.7,19.3-0.7,28.7c-1.2,4.7-3.7,8.9-8.1,11.1c-4.5,2.2-9.7,1.9-14.5,1.6
					c-1.9-0.1-1.9,2.9,0,3c9.9,0.6,19.5-0.7,24-10.6c4.8-10.7,1-22.5,2.3-33.7C305,313.5,302,313.5,301.8,315.4L301.8,315.4z"/>
			</g>
		</g>
		<g>
			<g>
				<path class="st8" d="M279,356.7c-4.6-1.3-6-5.6-4.7-9.9c0.6-1.8-2.3-2.6-2.9-0.8c-1.8,5.9,0.6,11.8,6.7,13.6
					C280.1,360.1,280.9,357.2,279,356.7L279,356.7z"/>
			</g>
		</g>
		<g>
			<g>
				<path class="st8" d="M273.6,342.1c-5.8-1.3-7.1,4.9-5.7,9.3c1.6,5.2,6,9,11.6,8.5c3.8-0.3,7.4-2.2,10.9-3.6
					c2.8-1.1,5.8-2.1,7.9-4.5c4.8-5.7,2.1-14,4.5-20.5c-1-0.1-2-0.3-2.9-0.4c0,3.4-0.3,6.6-0.8,9.9c1,0,1.9,0,2.9,0
					c-0.3-1.3-0.4-2.6-0.2-4c-1,0.1-2,0.3-2.9,0.4c0.1,0.8,0.2,1.5,0.3,2.3c0,1.5,2,2,2.8,0.8c0.3-0.5,0.7-1,1-1.6
					c1.1-1.6-1.5-3.1-2.6-1.5c-1.7,2.6-8.5,16.3-12.1,14.7c0.1,0.8,0.2,1.6,0.3,2.4c4.6-4.9,8.5-10.2,11.6-16.2
					c0.9-1.7-1.7-3.2-2.6-1.5c-3,5.7-6.7,10.9-11.1,15.6c-0.6,0.6-0.6,2,0.3,2.4c3.1,1.3,5.2,0.3,7.3-2.2c3.4-4.1,6-9.2,8.9-13.6
					c-0.9-0.5-1.7-1-2.6-1.5c-0.3,0.5-0.7,1-1,1.6c0.9,0.3,1.9,0.5,2.8,0.8c0-1.5,0-1.6-0.4-3.1c-0.4-1.7-2.8-1.2-2.9,0.4
					c-0.1,1.7,0,3.1,0.3,4.8c0.3,1.4,2.7,1.5,2.9,0c0.5-3.6,0.8-7.1,0.9-10.7c0-1.8-2.4-1.9-2.9-0.4c-2.7,7.5,1.1,17.8-7.7,21.9
					c-3.4,1.6-7.2,3.3-10.9,4.2c-3.3,0.8-6,0.5-8.3-2c-0.4-0.5-6-10.8-0.2-9.5C274.7,345.4,275.5,342.5,273.6,342.1L273.6,342.1z"/>
			</g>
		</g>
		<g>
			<g>
				<path class="st8" d="M302,307.5c0.3,9.2,0.4,18.4,0,27.6c-0.1,1.7,2.7,2.1,2.9,0.4c0.3-2,0.3-3.6,0-5.6
					c-0.4-1.9-3.3-1.1-2.9,0.8c0,1.3,0,2.7,0,4c1,0.1,2,0.3,2.9,0.4c0.3-9.2,0.3-18.4,0-27.6C305,305.6,302,305.5,302,307.5
					L302,307.5z"/>
			</g>
		</g>
		<g>
			<g>
				<path class="st8" d="M302,331.3c0,1.8,0,3.5-0.1,5.3c-0.1,1.9,2.9,1.9,3,0c0.1-1.8,0.2-3.5,0.1-5.3
					C304.9,329.4,301.9,329.4,302,331.3L302,331.3z"/>
			</g>
		</g>
		<g>
			<g>
				<path class="st8" d="M302,333c0.2,2,0.1,4-0.5,6c-0.5,1.9,2.4,2.7,2.9,0.8c0.6-2.2,0.9-4.5,0.6-6.8
					C304.8,331.1,301.8,331.1,302,333L302,333z"/>
			</g>
		</g>
		<g>
			<g>
				<path class="st8" d="M267.8,346.3c-0.2,4.6,0.1,10.5,5,12.7c5,2.3,11.8-2.2,16.3-4.2c1.8-0.8,0.2-3.3-1.5-2.6
					c-3.3,1.4-6.9,3.6-10.4,4.2c-6.3,1-6.5-5.9-6.3-10.2C270.9,344.4,267.9,344.4,267.8,346.3L267.8,346.3z"/>
			</g>
		</g>
		<g>
			<g>
				<path class="st8" d="M290.2,339.3c0.2-8.6,0.7-17.1,1.4-25.7c0.2-1.9-2.8-1.9-3,0c-0.7,8.6-1.1,17.1-1.4,25.7
					C287.2,341.3,290.2,341.3,290.2,339.3L290.2,339.3z"/>
			</g>
		</g>
		<g>
			<g>
				<path class="st8" d="M271.8,345.3c4.8-0.5,11.4-0.2,15.3-3.6c4.2-3.7,4.4-11.1,5.1-16.2c0.3-1.9-2.6-2.7-2.9-0.8
					c-0.6,4.1-0.8,10.4-3.4,13.8c-3,3.8-9.7,3.3-14.1,3.8C269.9,342.5,269.9,345.5,271.8,345.3L271.8,345.3z"/>
			</g>
		</g>
		<g>
			<g>
				<path class="st8" d="M288.5,312.1c-0.1,0.3-0.2,0.5-0.3,0.8c-0.3,0.7,0.3,1.7,1,1.8c0.9,0.2,1.5-0.3,1.8-1
					c0.1-0.3,0.2-0.5,0.3-0.8c0.3-0.7-0.3-1.7-1-1.8C289.4,310.8,288.8,311.3,288.5,312.1L288.5,312.1z"/>
			</g>
		</g>
		<g>
			<g>
				<path class="st8" d="M287.2,304.2c0,7.6,0,15.1-0.1,22.7c-0.1,4.2,0.6,9.2-2.3,12.7c-1.7,2.1-4.3,3.6-6.1,5.6
					c-1.3,1.4,0.8,3.5,2.1,2.1c4.8-5.2,8.9-7,9.2-14.6c0.4-9.5,0.2-19,0.2-28.5C290.2,302.3,287.2,302.2,287.2,304.2L287.2,304.2z"
					/>
			</g>
		</g>
		<g>
			<g>
				<path class="st8" d="M291,359c5.6-0.2,10.6-1.3,12.4-7.2c2-6.7,2.7-14.4,1.5-21.3c-0.3-1.9-3.2-1.1-2.9,0.8
					c0.9,5.1,0.4,10-0.5,15c-0.3,1.5-0.5,3.3-1,4.7c-1.5,4.5-5.4,4.9-9.5,5C289,356.1,289,359.1,291,359L291,359z"/>
			</g>
		</g>
		<g>
			<g>
				<path class="st8" d="M276.6,359.8c1.9,0,1.9-3,0-3C274.7,356.8,274.7,359.8,276.6,359.8L276.6,359.8z"/>
			</g>
		</g>
		<g>
			<g>
				<path class="st8" d="M276.6,360c1.9,0,1.9-3,0-3C274.7,357,274.7,360,276.6,360L276.6,360z"/>
			</g>
		</g>
		<g>
			<g>
				<path class="st8" d="M293.5,355.7c-5.9,0.5-11.7,0.5-17.6,0.3c-1.9-0.1-1.9,2.9,0,3c5.9,0.3,11.7,0.2,17.6-0.3
					C295.4,358.6,295.4,355.6,293.5,355.7L293.5,355.7z"/>
			</g>
		</g>
		<g>
			<g>
				<path class="st8" d="M270.7,357.3c2.1,4.5,9.5,3.3,13.4,3.2c5-0.1,12.7,0.8,17.1-2.3c4.1-2.9,4.1-10,4.4-14.6
					c0.5-8.2,0.1-16.4-0.9-24.5c-0.2-1.9-3.2-1.9-3,0c1.2,9.7,1.8,19.8,0.4,29.6c-0.5,3.3-1.1,7-4.8,8c-2.3,0.6-4.9,0.5-7.3,0.6
					c-3.1,0.1-15,2-16.7-1.5C272.4,354,269.9,355.6,270.7,357.3L270.7,357.3z"/>
			</g>
		</g>
		<g>
			<g>
				<path class="st8" d="M302.6,291.4c0.4,17,1.8,35.1-1.2,51.9c-0.3,1.9,2.6,2.7,2.9,0.8c3.1-17.1,1.8-35.4,1.4-52.7
					C305.5,289.5,302.5,289.5,302.6,291.4L302.6,291.4z"/>
			</g>
		</g>
		<g>
			<g>
				<path class="st8" d="M303.2,320.3c0.7,12.1,1.3,24.3-3.4,35.8c-0.7,1.8,2.2,2.6,2.9,0.8c4.8-11.7,4.3-24.2,3.5-36.6
					C306,318.4,303,318.4,303.2,320.3L303.2,320.3z"/>
			</g>
		</g>
		<g>
			<g>
				<path class="st8" d="M428.3,255.8c5.2-6.8,13.2-9.2,21.4-6.5c1.8,0.6,2.6-2.3,0.8-2.9c-9-3-18.5-0.3-24.3,7.2
					C425,255.2,427.1,257.4,428.3,255.8L428.3,255.8z"/>
			</g>
		</g>
		<g>
			<g>
				<path class="st8" d="M431.7,251.5c-1.4,2.1-3.3,3.3-5.3,4.8c-1.4,1.1-2.3,2.6-1.6,4.3c0.6,1.5,2.2,2.3,3.7,1.5
					c1.8-0.9,2.8-3.2,3.2-5c0.3-1.3-1-2.3-2.2-1.7c-1.7,0.8-3.4,2.3-3.9,4.2c-0.4,1.5,0.3,3.3,2.1,3.3c1.9,0,1.9-3,0-3
					c0.6,0.5,1,0.4,1.2-0.2c0.2-0.2,0.4-0.5,0.6-0.7c0.5-0.5,1-0.8,1.6-1c-0.7-0.6-1.5-1.1-2.2-1.7c-0.2,0.6-0.3,1.2-0.7,1.8
					c-0.1,0.2-1.1,1.2-0.6,1.3c-0.2,0,2.2-1.9,2.4-2c1.7-1.3,3.1-2.8,4.3-4.5C435.3,251.5,432.7,250,431.7,251.5L431.7,251.5z"/>
			</g>
		</g>
		<g>
			<g>
				<path class="st8" d="M367.9,317.2c-0.4,2.9,0.3,5.3,3.3,6.4c3.6,1.3,7.6,1.2,11.3,0.7c1.9-0.3,1.1-3.2-0.8-2.9
					c-2.4,0.4-4.9,0.4-7.3,0c-0.7-0.1-1.8-0.3-2.4-0.6c-1.6-0.8-1.3-2.1-1.1-3.5C371.2,315.3,368.2,315.3,367.9,317.2L367.9,317.2z"
					/>
			</g>
		</g>
		<g>
			<g>
				<path class="st8" d="M367.1,315.5c0.2,2.5,0.5,5.2,2.4,7.1c1.9,1.9,4.2,1.8,6.6,0.8c1.8-0.7,1-3.6-0.8-2.9
					c-1.5,0.6-2.8,1-3.9-0.4c-1-1.3-1.1-3.1-1.2-4.6C370,313.6,367,313.5,367.1,315.5L367.1,315.5z"/>
			</g>
		</g>
		<g>
			<g>
				<path class="st8" d="M226.9,233c2.5-1.6,6.1-2.2,8.9-3.1c2.9-0.9,6-2.2,9.1-2.2c-0.5-0.6-1-1.3-1.4-1.9
					c-1.7,5.8-2.9,11.8-3.7,17.8c-0.2,1.9,2.8,1.9,3,0c0.7-5.8,1.9-11.4,3.6-17c0.3-0.9-0.5-1.9-1.4-1.9c-3.4,0-6.7,1.3-9.9,2.3
					c-3.1,1-6.9,1.6-9.6,3.4C223.8,231.5,225.3,234.1,226.9,233L226.9,233z"/>
			</g>
		</g>
		<g>
			<g>
				<path class="st8" d="M229.1,231.8c4.1-1.5,8.7-3.5,13.1-3.6c1.9,0,1.9-3,0-3c-4.7,0.1-9.5,2.2-13.9,3.7
					C226.5,229.6,227.3,232.5,229.1,231.8L229.1,231.8z"/>
			</g>
		</g>
	</g>
</g>
</svg>
