<?xml version="1.0" encoding="utf-8"?>
<!-- Generator: Adobe Illustrator 22.1.0, SVG Export Plug-In . SVG Version: 6.00 Build 0)  -->
<svg version="1.1" xmlns="http://www.w3.org/2000/svg" xmlns:xlink="http://www.w3.org/1999/xlink" x="0px" y="0px"
	 viewBox="0 0 500 500" style="enable-background:new 0 0 500 500;" xml:space="preserve">
<style type="text/css">
	.st0{fill:none;stroke:#313131;stroke-width:3;stroke-miterlimit:10;}
	.st1{display:none;}
	.st2{display:inline;fill:none;stroke:#1FA463;stroke-miterlimit:10;}
	.st3{fill:#313131;}
	.st4{fill:#808080;}
	.st5{fill:#505050;}
	.st6{display:inline;}
	.st7{fill:#1FA463;}
	.st8{fill:#FFD769;}
	.st9{fill:#498AF4;}
</style>
<g id="Layer_4">
	<path class="st0" d="M26.5,41.9v418.1c0,9.1,7.4,16.4,16.4,16.4h415.1c9.1,0,16.4-7.4,16.4-16.4V41.9c0-9.1-7.4-16.4-16.4-16.4
		H42.9C33.9,25.5,26.5,32.9,26.5,41.9z"/>
</g>
<g id="Layer_1" class="st1">
	<path class="st2" d="M26.5,41.9v418.1c0,9.1,7.4,16.4,16.4,16.4h415.1c9.1,0,16.4-7.4,16.4-16.4V41.9c0-9.1-7.4-16.4-16.4-16.4
		H42.9C33.9,25.5,26.5,32.9,26.5,41.9z"/>
</g>
<g id="Layer_3">
	<g>
		<polyline class="st3" points="51.4,304.3 144.5,338.4 115.1,418.7 		"/>
		<polyline class="st3" points="250.7,193.9 159.3,167.8 182.9,85.2 		"/>
		
			<rect x="94.4" y="149.8" transform="matrix(0.8562 0.5167 -0.5167 0.8562 150.3557 -42.1653)" class="st3" width="113" height="198.3"/>
		<polyline class="st3" points="179.9,309.1 89.2,337.3 114.7,419.3 		"/>
		<polyline class="st3" points="118.1,195.5 208.8,167.2 183.3,85.2 		"/>
	</g>
	<g>
		<polyline class="st4" points="312.8,83.9 242.6,146.2 184.7,84.5 		"/>
		<polyline class="st4" points="321.8,306.2 392,243.9 449.9,305.6 		"/>
		<polygon class="st4" points="218.2,137.3 312.1,83 415.8,252.2 321.9,306.5 		"/>
		<polyline class="st4" points="251.2,191 269,100.2 184.7,84.6 		"/>
		<polyline class="st4" points="382.4,198.8 364.8,289.6 449.2,305 		"/>
	</g>
	<g>
		<polyline class="st5" points="183.1,307.9 201.9,401.1 117.7,418.1 		"/>
		<polyline class="st5" points="383.8,417.8 365,324.7 449.2,307.7 		"/>
		
			<rect x="228.4" y="261.7" transform="matrix(-3.246285e-03 1 -1 -3.246285e-03 646.9242 81.0997)" class="st5" width="109.2" height="202.6"/>
		<polyline class="st5" points="245.8,417.4 174.9,354.1 117.7,418.1 		"/>
		<polyline class="st5" points="320.2,308.8 391.1,372.2 448.3,308.1 		"/>
	</g>
</g>
<g id="Layer_5" class="st1">
	<g class="st6">
		<polyline class="st7" points="51.4,304.3 144.5,338.4 115.1,418.7 		"/>
		<polyline class="st7" points="250.7,193.9 159.3,167.8 182.9,85.2 		"/>
		
			<rect x="94.4" y="149.8" transform="matrix(0.8562 0.5167 -0.5167 0.8562 150.3557 -42.1653)" class="st7" width="113" height="198.3"/>
		<polyline class="st7" points="179.9,309.1 89.2,337.3 114.7,419.3 		"/>
		<polyline class="st7" points="118.1,195.5 208.8,167.2 183.3,85.2 		"/>
	</g>
	<g class="st6">
		<polyline class="st8" points="312.8,83.9 242.6,146.2 184.7,84.5 		"/>
		<polyline class="st8" points="321.8,306.2 392,243.9 449.9,305.6 		"/>
		<polygon class="st8" points="218.2,137.3 312.1,83 415.8,252.2 321.9,306.5 		"/>
		<polyline class="st8" points="251.2,191 269,100.2 184.7,84.6 		"/>
		<polyline class="st8" points="382.4,198.8 364.8,289.6 449.2,305 		"/>
	</g>
	<g class="st6">
		<polyline class="st9" points="181.1,308.9 199.9,402.1 115.7,419.1 		"/>
		<polyline class="st9" points="381.8,418.8 363,325.7 447.2,308.7 		"/>
		
			<rect x="226.4" y="262.7" transform="matrix(-3.246285e-03 1 -1 -3.246285e-03 645.9177 84.1029)" class="st9" width="109.2" height="202.6"/>
		<polyline class="st9" points="243.8,418.4 172.9,355.1 115.7,419.1 		"/>
		<polyline class="st9" points="318.2,309.8 389.1,373.2 446.3,309.1 		"/>
	</g>
</g>
</svg>
