<?xml version="1.0" encoding="utf-8"?>
<!-- Generator: Adobe Illustrator 22.1.0, SVG Export Plug-In . SVG Version: 6.00 Build 0)  -->
<svg version="1.1" xmlns="http://www.w3.org/2000/svg" xmlns:xlink="http://www.w3.org/1999/xlink" x="0px" y="0px"
	 viewBox="0 0 500 500" style="enable-background:new 0 0 500 500;" xml:space="preserve">
<style type="text/css">
	.st0{fill:none;stroke:#313131;stroke-width:3;stroke-miterlimit:10;}
	.st1{fill:#313131;}
	.st2{fill:#808080;}
</style>
<g id="Layer_1">
	<path class="st0" d="M26.5,41.9v418.1c0,9.1,7.4,16.4,16.4,16.4h415.1c9.1,0,16.4-7.4,16.4-16.4V41.9c0-9.1-7.4-16.4-16.4-16.4
		H42.9C33.9,25.5,26.5,32.9,26.5,41.9z"/>
</g>
<g id="Layer_3">
	<path class="st1" d="M409.2,425h-103V91.9c0-7.7,6.3-13.9,13.9-13.9h89c7.7,0,13.9,6.3,13.9,13.9v319.1
		C423.1,418.7,416.8,425,409.2,425z"/>
	<path class="st2" d="M306.2,425H189.3V201.4c0-7.7,6.3-14,14-14h102.9V425z"/>
	<path class="st2" d="M189.3,425H92c-7.7,0-14-6.3-14-14v-90.8c0-7.7,6.3-14,14-14h97.3V425z"/>
</g>
</svg>
