<?xml version="1.0" encoding="utf-8"?>
<!-- Generator: Adobe Illustrator 22.1.0, SVG Export Plug-In . SVG Version: 6.00 Build 0)  -->
<svg version="1.1" xmlns="http://www.w3.org/2000/svg" xmlns:xlink="http://www.w3.org/1999/xlink" x="0px" y="0px"
	 viewBox="0 0 500 500" style="enable-background:new 0 0 500 500;" xml:space="preserve">
<style type="text/css">
	.st0{fill:none;stroke:#313131;stroke-width:3;stroke-miterlimit:10;}
	.st1{fill:#313131;}
	.st2{fill:#FFFFFF;}
</style>
<g id="Layer_1">
	<path class="st0" d="M26.5,41.9v418.1c0,9.1,7.4,16.4,16.4,16.4h415.1c9.1,0,16.4-7.4,16.4-16.4V41.9c0-9.1-7.4-16.4-16.4-16.4
		H42.9C33.9,25.5,26.5,32.9,26.5,41.9z"/>
</g>
<g id="Layer_3">
	<path class="st1" d="M260.2,64h24.7v39.2c46.6,0.3,93.3-0.5,139.8,0.2c10-1,17.9,6.8,16.9,16.9c0.7,81.5-0.2,163,0.4,244.4
		c-0.4,8.8,0.9,18.6-4.2,26.4c-6.4,4.6-14.7,4-22.1,4.4c-43.6-0.2-87.2-0.1-130.9-0.1V439h-27.1c-66.5-12.1-133-23.2-199.5-34.9
		c0-101.7,0-203.5,0-305.1C125.6,87.3,192.8,75.5,260.2,64z"/>
	<path class="st2" d="M284.9,116.3h143.9v266H284.9v-34.9h104.7V330H284.9v-21.8h104.7v-17.4H285c0-8.5,0-17.1-0.1-25.6
		c17.3,5.4,36.9,5.2,52.4-5.1c16.7-9.9,25.4-28.8,26.9-47.6c-19.1-0.1-38.3-0.1-57.4-0.1c0-19,0.2-37.9-0.4-56.9
		c-7.2,1.4-14.3,2.9-21.4,4.4L284.9,116.3L284.9,116.3z"/>
	<path class="st1" d="M315.5,146.3c30.3,1.4,55.8,26.9,57.4,57.1c-19.1,0.2-38.3,0.1-57.4,0.1C315.5,184.4,315.4,165.3,315.5,146.3
		L315.5,146.3z"/>
	<path class="st2" d="M128.2,179.2c23.7,1.1,52.4-9.4,72,8.4c18.8,22.8,13.8,64.8-14,78.4c-9.9,5.1-21.2,4.4-32,4
		c0,17.1-0.1,34.1,0,51.2c-8.6-0.8-17.3-1.5-25.9-2.2C127.8,272.4,127.7,225.8,128.2,179.2L128.2,179.2z"/>
	<path class="st1" d="M154.1,202.8c8.6-0.4,19.2-2,25,6.1c5,8.5,4.7,19.8,0.6,28.6c-5,9-16.2,8.1-24.9,9.2
		C153.9,232.1,154,217.4,154.1,202.8L154.1,202.8z"/>
</g>
</svg>
