<?xml version="1.0" encoding="utf-8"?>
<!-- Generator: Adobe Illustrator 22.1.0, SVG Export Plug-In . SVG Version: 6.00 Build 0)  -->
<svg version="1.1" xmlns="http://www.w3.org/2000/svg" xmlns:xlink="http://www.w3.org/1999/xlink" x="0px" y="0px"
	 viewBox="0 0 500 500" style="enable-background:new 0 0 500 500;" xml:space="preserve">
<style type="text/css">
	.st0{fill:none;stroke:#313131;stroke-width:3;stroke-miterlimit:10;}
	.st1{fill:#FF401F;}
	.st2{fill:#313131;}
	.st3{fill:#FFFFFF;}
</style>
<g id="Layer_1">
	<path class="st0" d="M26.5,41.9v418.1c0,9.1,7.4,16.4,16.4,16.4h415.1c9.1,0,16.4-7.4,16.4-16.4V41.9c0-9.1-7.4-16.4-16.4-16.4
		H42.9C33.9,25.5,26.5,32.9,26.5,41.9z"/>
</g>
<g id="Layer_2">
	<path class="st1" d="M57.4,439.6h381.2V58.4H57.4V439.6z"/>
	<path class="st2" d="M52.5,53.5h391v391h-391V53.5z"/>
	<path class="st3" d="M408,350.7V228c0-37.1-56.7-62-127.6-33v155.8h42V216.6c22-7.3,47.7-4.1,47.7,14.7v119.5H408z M197.2,123.6
		h-45.7L88.8,348.3l35.1,2l17.1-63.2h67.3l16.7,63.2h40.4L197.2,123.6z M149.9,251.7l23.6-94.2l24.9,94.2H149.9z"/>
</g>
</svg>
