<?xml version="1.0" encoding="utf-8"?>
<!-- Generator: Adobe Illustrator 22.1.0, SVG Export Plug-In . SVG Version: 6.00 Build 0)  -->
<svg version="1.1" xmlns="http://www.w3.org/2000/svg" xmlns:xlink="http://www.w3.org/1999/xlink" x="0px" y="0px"
	 viewBox="0 0 500 500" style="enable-background:new 0 0 500 500;" xml:space="preserve">
<style type="text/css">
	.st0{display:none;}
	.st1{display:inline;fill:none;stroke:#84CEEB;stroke-width:3;stroke-miterlimit:10;}
	.st2{fill:#FFFFFF;stroke:#000000;stroke-miterlimit:10;}
	.st3{fill:#313131;}
	.st4{fill:#808080;}
	.st5{display:inline;fill:#FFFFFF;stroke:#000000;stroke-miterlimit:10;}
	.st6{display:inline;fill:#EC008C;}
	.st7{display:inline;fill:#84CEEB;}
</style>
<g id="Layer_4" class="st0">
	<path class="st1" d="M26.5,41.9v418.1c0,9.1,7.4,16.4,16.4,16.4h415.1c9.1,0,16.4-7.4,16.4-16.4V41.9c0-9.1-7.4-16.4-16.4-16.4
		H42.9C33.9,25.5,26.5,32.9,26.5,41.9z"/>
</g>
<g id="Layer_1">
	<path class="st2" d="M236.5-15.5"/>
	<rect x="64.5" y="122.5" class="st3" width="373" height="257.5"/>
	<polyline class="st4" points="64,123.2 250.5,123.2 250.5,296.8 	"/>
	<polyline class="st4" points="437,123.2 250.5,123.2 250.5,296.8 	"/>
</g>
<g id="Layer_3" class="st0">
	<path class="st5" d="M236.5-15.5"/>
	<rect x="64.5" y="122.5" class="st6" width="373" height="257.5"/>
	<polyline class="st7" points="64,123.2 250.5,123.2 250.5,296.8 	"/>
	<polyline class="st7" points="437,123.2 250.5,123.2 250.5,296.8 	"/>
</g>
</svg>
