<?xml version="1.0" encoding="utf-8"?>
<!-- Generator: Adobe Illustrator 22.1.0, SVG Export Plug-In . SVG Version: 6.00 Build 0)  -->
<svg version="1.1" xmlns="http://www.w3.org/2000/svg" xmlns:xlink="http://www.w3.org/1999/xlink" x="0px" y="0px"
	 viewBox="0 0 500 500" style="enable-background:new 0 0 500 500;" xml:space="preserve">
<style type="text/css">
	.st0{display:none;}
	.st1{display:inline;fill:none;stroke:#313131;stroke-width:3;stroke-miterlimit:10;}
	.st2{display:inline;}
	.st3{fill:#313131;}
	.st4{display:inline;fill:#808080;}
	.st5{display:inline;fill:url(#SVGID_1_);}
	.st6{display:inline;fill:#FFFFFF;}
	.st7{fill:#4385F4;}
	.st8{fill:#A5C5FA;}
	.st9{fill:url(#SVGID_2_);}
	.st10{fill:#FFFFFF;}
	.st11{fill:none;stroke:#A5C5FA;stroke-width:3;stroke-miterlimit:10;}
</style>
<g id="Layer_1" class="st0">
	<path class="st1" d="M26.5,41.9v418.1c0,9.1,7.4,16.4,16.4,16.4h415.1c9.1,0,16.4-7.4,16.4-16.4V41.9c0-9.1-7.4-16.4-16.4-16.4
		H42.9C33.9,25.5,26.5,32.9,26.5,41.9z"/>
</g>
<g id="Layer_5" class="st0">
	<g class="st2">
		<path class="st3" d="M300.6,71H139.4c-11.8,0-21.4,9.6-21.4,21.4v314.2c0,11.8,9.6,21.4,21.4,21.4h221.4
			c11.8,0,21.4-9.6,21.4-21.4V159.8L300.6,71z"/>
	</g>
	<path class="st4" d="M382.1,159.9l-64.9-0.1c-9,0-16.2-7.6-16.2-17l0.1-71.9"/>
	<linearGradient id="SVGID_1_" gradientUnits="userSpaceOnUse" x1="347.7307" y1="168.556" x2="356.945" y2="219.7468">
		<stop  offset="0" style="stop-color:#0F0F0F"/>
		<stop  offset="1" style="stop-color:#313131"/>
	</linearGradient>
	<polyline class="st5" points="382.1,231.9 382.1,159.9 310.2,159.9 	"/>
	<rect x="183.4" y="239.7" class="st6" width="132.1" height="17"/>
	<rect x="183.4" y="269.8" class="st6" width="132.1" height="17"/>
	<rect x="183.4" y="299.9" class="st6" width="132.1" height="17"/>
	<rect x="183.4" y="329.9" class="st6" width="82.4" height="17"/>
</g>
<g id="Layer_3">
	<g>
		<path class="st7" d="M300.6,72H139.4c-11.8,0-21.4,9.6-21.4,21.4v314.2c0,11.8,9.6,21.4,21.4,21.4h221.4
			c11.8,0,21.4-9.6,21.4-21.4V160.8L300.6,72z"/>
	</g>
	<path class="st8" d="M382.1,160.9l-64.9-0.1c-9,0-16.2-7.6-16.2-17l0.1-71.9"/>
	<linearGradient id="SVGID_2_" gradientUnits="userSpaceOnUse" x1="347.7307" y1="169.556" x2="356.945" y2="220.7468">
		<stop  offset="0" style="stop-color:#4971B5"/>
		<stop  offset="1" style="stop-color:#4589F9"/>
	</linearGradient>
	<polyline class="st9" points="382.1,232.9 382.1,160.9 310.2,160.9 	"/>
	<rect x="183.4" y="240.7" class="st10" width="132.1" height="17"/>
	<rect x="183.4" y="270.8" class="st10" width="132.1" height="17"/>
	<rect x="183.4" y="300.9" class="st10" width="132.1" height="17"/>
	<rect x="183.4" y="330.9" class="st10" width="82.4" height="17"/>
</g>
<g id="Layer_4">
	<path class="st11" d="M26.5,41.9v418.1c0,9.1,7.4,16.4,16.4,16.4h415.1c9.1,0,16.4-7.4,16.4-16.4V41.9c0-9.1-7.4-16.4-16.4-16.4
		H42.9C33.9,25.5,26.5,32.9,26.5,41.9z"/>
</g>
</svg>
