<?xml version="1.0" encoding="utf-8"?>
<!-- Generator: Adobe Illustrator 22.1.0, SVG Export Plug-In . SVG Version: 6.00 Build 0)  -->
<svg version="1.1" xmlns="http://www.w3.org/2000/svg" xmlns:xlink="http://www.w3.org/1999/xlink" x="0px" y="0px"
	 viewBox="0 0 500 500" style="enable-background:new 0 0 500 500;" xml:space="preserve">
<style type="text/css">
	.st0{fill:none;stroke:#313131;stroke-width:3;stroke-miterlimit:10;}
	.st1{fill:#313131;}
	.st2{fill:#FFFFFF;}
</style>
<g id="Layer_1">
	<path class="st0" d="M26.5,41.9v418.1c0,9.1,7.4,16.4,16.4,16.4h415.1c9.1,0,16.4-7.4,16.4-16.4V41.9c0-9.1-7.4-16.4-16.4-16.4
		H42.9C33.9,25.5,26.5,32.9,26.5,41.9z"/>
</g>
<g id="Layer_2">
	<path class="st1" d="M57.6,57.9h386.9v386H57.6V57.9z"/>
	<path class="st2" d="M231.3,274.2c0-39.3,25.3-70.1,66.9-70.1c3.5,0,5.4,0,8.8,0.3v-43.9c0-1,0.8-1.7,1.7-1.7h27.2
		c1.4,0,1.7,0.5,1.7,1.4v154.3c0,4.6,0,10.3,0.8,16.5c0,1.2,0,1.4-1,1.9c-14.2,6.8-29,9.8-43.2,9.8
		C257.5,342.8,231.3,320.2,231.3,274.2L231.3,274.2z"/>
	<path class="st1" d="M308.2,230c-3-1.2-6.9-1.8-11.7-1.8c-25.5,0-42.5,17.1-42.5,45.5c0,32.4,17.4,45.5,40,45.5
		c4.9,0,10.1-0.5,13.9-1.9V230H308.2z"/>
	<path class="st2" d="M196,340.2c0,1.7-0.3,2.2-2.2,2.2h-26.4c-1.7,0-2.2-0.8-2.2-2.2v-179c0-1.7,0.9-2.2,2.2-2.2h26.6
		c1.4,0,2.1,0.5,2.1,2V340.2z"/>
</g>
</svg>
