<?xml version="1.0" encoding="utf-8"?>
<!-- Generator: Adobe Illustrator 22.1.0, SVG Export Plug-In . SVG Version: 6.00 Build 0)  -->
<svg version="1.1" xmlns="http://www.w3.org/2000/svg" xmlns:xlink="http://www.w3.org/1999/xlink" x="0px" y="0px"
	 viewBox="0 0 500 500" style="enable-background:new 0 0 500 500;" xml:space="preserve">
<style type="text/css">
	.st0{fill:none;stroke:#313131;stroke-width:3;stroke-miterlimit:10;}
	.st1{fill:#313131;}
	.st2{fill:#808080;}
</style>
<g id="Layer_1">
	<path class="st0" d="M26.5,41.9v418.1c0,9.1,7.4,16.4,16.4,16.4h415.1c9.1,0,16.4-7.4,16.4-16.4V41.9c0-9.1-7.4-16.4-16.4-16.4
		H42.9C33.9,25.5,26.5,32.9,26.5,41.9z"/>
</g>
<g id="Layer_3">
	<path class="st1" d="M262,411l-159,0c-7.2,0-13-5.8-13-13l0-277c0-17.1,13.9-31,31-31l277,0c7.2,0,13,5.8,13,13l0,159
		C411,344.3,344.3,411,262,411z"/>
	<path class="st2" d="M206.3,303.3l-116.3,0L90,121c0-17.1,13.9-31,31-31l182.3,0l0,116.3C303.3,259.9,259.9,303.3,206.3,303.3z"/>
</g>
</svg>
