<?xml version="1.0" encoding="utf-8"?>
<!-- Generator: Adobe Illustrator 22.1.0, SVG Export Plug-In . SVG Version: 6.00 Build 0)  -->
<svg version="1.1" xmlns="http://www.w3.org/2000/svg" xmlns:xlink="http://www.w3.org/1999/xlink" x="0px" y="0px"
	 viewBox="0 0 500 500" style="enable-background:new 0 0 500 500;" xml:space="preserve">
<style type="text/css">
	.st0{fill:none;stroke:#313131;stroke-width:3;stroke-miterlimit:10;}
	.st1{fill:#313131;}
</style>
<g id="Layer_1">
	<path class="st0" d="M26.5,41.9v418.1c0,9.1,7.4,16.4,16.4,16.4h415.1c9.1,0,16.4-7.4,16.4-16.4V41.9c0-9.1-7.4-16.4-16.4-16.4
		H42.9C33.9,25.5,26.5,32.9,26.5,41.9z"/>
</g>
<g id="Layer_3">
	<g id="craft-cms-logo">
		<path id="Shape" class="st1" d="M256.7,214.9L256.7,214.9l-13.3,10.4l-1,5.2h-13.7l4-21.1c0.9-7.9,13.1-5.5,14.9-5.1l1.9-10.2
			c-21.8-8.4-28.1,15.2-28.1,15.2l-4,21.1h-0.1l-13.6,10.7h11.7l-12.8,67.3h11.3l12.8-67.3h13.7l-5,26.3
			c-3.2,19.2,16,17.1,22.1,15.8l1.9-10c-14.7,3.3-12.7-5.8-12.7-5.8l5-26.3h17.5l2-10.7h-17.5L256.7,214.9L256.7,214.9z"/>
		<path id="Shape_1_" class="st1" d="M166.9,230.8l-2,11.3c27.7-12.1,23,9,23,9l-0.6,3.2c0,0-16.2-8.3-27.6,0.9
			c0,0-6.7,4.4-6.7,13.3c0,8.9,8.1,13.7,8.1,13.7s12.2,6.5,21.8-3.9l-1.1,4.8h10.7l6.7-32C204.4,219.6,166.9,230.8,166.9,230.8
			L166.9,230.8z M184.7,268.8c-11.8,12.1-19.3,4.2-19.3,4.2c-5.1-5,0.5-10.1,0.5-10.1c7.8-7.1,19.7,0.7,19.7,0.7L184.7,268.8
			L184.7,268.8z"/>
		<path id="Shape_2_" class="st1" d="M157.3,230.5c-8.7,0.1-16.7,5-16.7,5l1-4.8h-10.5l-9.6,52.5h10.7l6.5-34.5
			c4.8-9.7,16.7-6.7,16.7-6.7L157.3,230.5L157.3,230.5z"/>
		<path id="Shape_3_" class="st1" d="M116.4,208c0.5,0.4,1.1,0.8,1.6,1.3l8.1-6.4l0.3-0.3c-1.2-1.3-2.6-2.4-4-3.5
			c-18.7-14.1-46.9-8.2-63,13.2c-16.1,21.4-14.1,50.1,4.6,64.2c15.2,11.5,36.9,9.7,53-3l0,0l-7.7-6.1c-12,7.7-26.9,8.3-37.7,0.1
			c-14.3-10.8-15.9-32.9-3.5-49.3C80.3,201.8,102,197.2,116.4,208L116.4,208z"/>
		<path id="Shape_4_" class="st1" d="M292,241.3c1.9-2,4.2-3.6,6.9-4.8c2.7-1.2,5.7-1.8,9-1.8c2.9,0,5.5,0.4,7.8,1.3
			c2.3,0.9,4.5,1.9,6.6,3.3l2.1-3.1c-2.3-1.5-4.8-2.7-7.5-3.6c-2.7-0.9-5.7-1.4-8.9-1.4c-3.8,0-7.2,0.7-10.4,2.1
			c-3.2,1.4-5.9,3.3-8.3,5.7c-2.3,2.4-4.1,5.2-5.4,8.5c-1.3,3.2-1.9,6.7-1.9,10.4c0,3.7,0.7,7.1,2,10.3c1.3,3.2,3.1,6,5.4,8.3
			c2.3,2.4,5,4.2,8.2,5.6c3.2,1.4,6.7,2,10.4,2c3.2,0,6.2-0.5,8.9-1.4s5.3-2.1,7.5-3.6l-2.1-3.1c-2,1.3-4.2,2.4-6.6,3.3
			c-2.3,0.9-4.9,1.3-7.8,1.3c-3.3,0-6.3-0.6-9-1.8c-2.7-1.2-5-2.8-6.9-4.9c-1.9-2.1-3.4-4.5-4.5-7.4c-1.1-2.8-1.6-5.8-1.6-9
			c0-3.2,0.5-6.2,1.6-9C288.6,245.7,290,243.3,292,241.3L292,241.3z"/>
		<path id="Shape_5_" class="st1" d="M404.3,235.3c-1.4-1.4-3.1-2.5-4.9-3.1c-1.8-0.7-3.8-1-5.8-1c-4.3,0-8.2,1.1-11.9,3.4
			c-3.7,2.3-6.7,5-9.2,8.1c-0.9-3.9-2.7-6.8-5.3-8.7c-2.6-1.9-5.6-2.8-9.1-2.8c-2.1,0-4.2,0.3-6.1,0.9c-2,0.6-3.8,1.4-5.5,2.4
			c-1.7,1-3.3,2.1-4.7,3.4c-1.5,1.3-2.8,2.6-3.9,3.9v-9.6h-3.8v50.9h3.9v-37.2c2.8-3.1,5.8-5.7,9-7.9c3.2-2.1,6.7-3.2,10.5-3.2
			c8,0,12,4.7,12,14v34.2h3.9v-36.6c2.6-3.5,5.6-6.3,9-8.5c3.4-2.1,6.9-3.2,10.6-3.2c8,0,12,4.7,12,14v34.2h3.9v-34.6
			c0-3-0.4-5.6-1.2-7.8C406.9,238.5,405.8,236.7,404.3,235.3L404.3,235.3z"/>
		<path id="Shape_6_" class="st1" d="M450,263.1c-1.3-1.7-3-3.1-5-4.2c-2-1.1-4.2-2.1-6.4-2.9c-2.3-0.8-4.4-1.7-6.4-2.7
			c-2-1-3.7-2.2-5-3.6c-1.3-1.4-2-3.4-2-5.8c0-2.4,1-4.5,2.9-6.4c1.9-1.9,4.8-2.9,8.8-2.9c2.4,0,4.6,0.4,6.6,1.1
			c2,0.7,4.1,1.9,6.3,3.6l1.8-3.1c-2.3-1.6-4.6-2.9-7.1-3.7c-2.4-0.8-5-1.2-7.7-1.2c-2.5,0-4.6,0.4-6.5,1.1
			c-1.9,0.7-3.5,1.7-4.8,2.9c-1.3,1.2-2.3,2.6-3,4.2c-0.7,1.6-1,3.1-1,4.8c0,2.9,0.7,5.2,2,6.9c1.3,1.7,3,3.1,5,4.3
			c2,1.1,4.1,2.1,6.4,2.9c2.3,0.8,4.4,1.7,6.4,2.8c2,1,3.7,2.3,5,3.7c1.3,1.4,2,3.4,2,5.8c0,2.9-1.1,5.3-3.3,7.2
			c-2.2,2-5.2,2.9-8.8,2.9c-2.9,0-5.7-0.5-8.2-1.6c-2.5-1.1-5-2.4-7.4-4.1l-1.8,2.9c2.6,1.8,5.4,3.3,8.2,4.4
			c2.9,1.1,5.9,1.7,9.2,1.7c2.5,0,4.6-0.4,6.6-1.2c1.9-0.8,3.6-1.8,5-3.1c1.4-1.3,2.5-2.8,3.2-4.5c0.7-1.7,1.1-3.5,1.1-5.4
			C452,267.1,451.3,264.8,450,263.1L450,263.1z"/>
	</g>
</g>
</svg>
