<?xml version="1.0" encoding="utf-8"?>
<!-- Generator: Adobe Illustrator 22.1.0, SVG Export Plug-In . SVG Version: 6.00 Build 0)  -->
<svg version="1.1" xmlns="http://www.w3.org/2000/svg" xmlns:xlink="http://www.w3.org/1999/xlink" x="0px" y="0px"
	 viewBox="0 0 500 500" style="enable-background:new 0 0 500 500;" xml:space="preserve">
<style type="text/css">
	.st0{display:none;}
	.st1{display:inline;fill:none;stroke:#313131;stroke-width:3;stroke-miterlimit:10;}
	.st2{fill:none;stroke:#D4B830;stroke-width:3;stroke-miterlimit:10;}
	.st3{fill:#D4B830;}
	.st4{fill:#FDD83C;}
	.st5{fill:#EBEBEB;}
	.st6{fill:#FFFFFF;}
	.st7{display:inline;}
	.st8{fill:#313131;}
	.st9{fill:#808080;}
</style>
<g id="Layer_4" class="st0">
	<path class="st1" d="M26.5,41.9v418.1c0,9.1,7.4,16.4,16.4,16.4h415.1c9.1,0,16.4-7.4,16.4-16.4V41.9c0-9.1-7.4-16.4-16.4-16.4
		H42.9C33.9,25.5,26.5,32.9,26.5,41.9z"/>
</g>
<g id="Layer_1">
	<g>
		<path class="st2" d="M26.5,41.9v418.1c0,9.1,7.4,16.4,16.4,16.4h415.1c9.1,0,16.4-7.4,16.4-16.4V41.9c0-9.1-7.4-16.4-16.4-16.4
			H42.9C33.9,25.5,26.5,32.9,26.5,41.9z"/>
	</g>
</g>
<g id="Layer_7">
	<g>
		<g>
			<g>
				<polygon class="st3" points="106,89 134.7,391.4 255.1,425 376.4,390.6 401,89 				"/>
				<polygon class="st4" points="374,114.4 354.3,371.7 255.1,397.1 255.1,114.4 				"/>
			</g>
		</g>
		<polygon class="st5" points="243.6,170.8 243.6,373 155,349.3 155,312.3 217.5,329.9 217.5,171.4 		"/>
		<polygon class="st6" points="308,286.5 266.7,286.5 266.7,334.3 292.4,332.8 292.4,350.2 266.7,357.2 266.7,373 301,363.7 
			302.5,322.4 276.6,323.1 276.8,300.3 306.2,300.3 		"/>
	</g>
</g>
<g id="Layer_5" class="st0">
	<g class="st7">
		<g>
			<g>
				<polygon class="st8" points="106,88 134.7,390.4 255.1,424 376.4,389.6 401,88 				"/>
				<polygon class="st9" points="374,113.4 354.3,370.7 255.1,396.1 255.1,113.4 				"/>
			</g>
		</g>
		<polygon class="st5" points="243.6,169.8 243.6,372 155,348.3 155,311.3 217.5,328.9 217.5,170.4 		"/>
		<polygon class="st6" points="308,285.5 266.7,285.5 266.7,333.3 292.4,331.8 292.4,349.2 266.7,356.2 266.7,372 301,362.7 
			302.5,321.4 276.6,322.1 276.8,299.3 306.2,299.3 		"/>
	</g>
</g>
</svg>
